<?xml version="1.0" standalone="no"?>
<!DOCTYPE svg PUBLIC "-//W3C//DTD SVG 1.1//EN" "http://www.w3.org/Graphics/SVG/1.1/DTD/svg11.dtd" >
<svg xmlns="http://www.w3.org/2000/svg" xmlns:xlink="http://www.w3.org/1999/xlink" version="1.1">
<metadata>
Created by FontForge 20160407 at Fri May 27 00:28:41 2016
 By Jimmy Wärting
Copyright (c) 1989 Adobe Systems Incorporated.  All Rights Reserved.AkzidenzGrotesk is a registered trademark of Berthold.
</metadata>
<defs>
<font id="AkzidenzGrLt" horiz-adv-x="500" >
  <font-face 
    font-family="Akzidenz Gr Lt"
    font-weight="400"
    font-stretch="normal"
    units-per-em="1000"
    panose-1="0 0 4 0 0 0 0 0 0 0"
    ascent="800"
    descent="-200"
    x-height="480"
    cap-height="712"
    bbox="-165 -248 1031 931"
    underline-thickness="50"
    underline-position="-125"
    unicode-range="U+0020-F002"
  />
<missing-glyph 
d="M63 0v761h375v-761h-375zM125 63h250v636h-250v-636z" />
    <glyph glyph-name=".notdef" 
d="M63 0v761h375v-761h-375zM125 63h250v636h-250v-636z" />
    <glyph glyph-name=".null" horiz-adv-x="0" 
 />
    <glyph glyph-name="nonmarkingreturn" horiz-adv-x="278" 
 />
    <glyph glyph-name="space" unicode=" " horiz-adv-x="278" 
 />
    <glyph glyph-name="exclam" unicode="!" horiz-adv-x="278" 
d="M105 712h68v-383l-9 -160h-50l-9 160v383zM101 0v116h76v-116h-76z" />
    <glyph glyph-name="quotedbl" unicode="&#x22;" horiz-adv-x="315" 
d="M77 438v274h50v-274h-50zM188 438v274h50v-274h-50z" />
    <glyph glyph-name="numbersign" unicode="#" horiz-adv-x="556" 
d="M109 0l32 233h-114v44h120l22 159h-114v44h120l32 232h50l-32 -232h140l32 232h50l-32 -232h114v-44h-120l-22 -159h114v-44h-120l-32 -233h-50l32 233h-140l-32 -233h-50zM337 277l22 159h-140l-22 -159h140z" />
    <glyph glyph-name="dollar" unicode="$" horiz-adv-x="556" 
d="M-5 175l73 7q21 -51 71 -89.5t104 -42.5v300q-102 30 -146 66q-57 47 -57 127q0 90 71 140q57 40 132 41v66h60v-66q84 -9 132 -47q52 -41 77 -125l-73 -5q-38 109 -136 115v-259q131 -40 174 -72q62 -47 62 -140q0 -88 -75 -147q-70 -56 -161 -56v-97h-60v97
q-82 0 -153 58q-66 53 -95 129zM243 419v243q-51 -1 -90 -27q-45 -31 -45 -84q0 -56 44 -90q28 -22 91 -42zM303 333v-283q60 0 107 29q61 38 61 112q0 61 -54 97q-29 19 -114 45z" />
    <glyph glyph-name="percent" unicode="%" horiz-adv-x="889" 
d="M249 724q71 0 111 -60q34 -53 34 -127q0 -76 -33 -127q-39 -60 -111 -60h-2q-72 0 -111 60q-33 51 -33 127q0 74 34 127q40 60 111 60zM640 362q71 0 111 -60q34 -53 34 -127q0 -76 -33 -127q-39 -60 -111 -60h-2q-72 0 -111 60q-33 51 -33 127q0 74 34 127q40 60 111 60
zM640 38q95 0 95 137t-95 137q-97 0 -95 -137t95 -137zM249 400q95 0 95 137t-95 137q-97 0 -95 -137t95 -137zM617 741l38 -19l-394 -758l-38 18z" />
    <glyph glyph-name="ampersand" unicode="&#x26;" horiz-adv-x="630" 
d="M492 316h60q-9 -114 -51 -181q32 -41 49 -56q31 -28 66 -29v-62q-47 0 -86 27q-27 18 -66 63q-84 -90 -198 -90q-94 0 -158 57t-64 149q0 73 57 140q47 56 124 97q-31 45 -42 71q-16 37 -16 81q0 66 39 103.5t105 37.5q62 0 99.5 -34.5t37.5 -94.5q0 -59 -44 -108
q-27 -31 -92 -76q21 -35 149 -225q25 59 31 130zM258 379q-70 -43 -100 -74q-46 -49 -46 -111q0 -67 47 -109q44 -41 107 -41q92 0 163 82q-54 67 -171 253zM388 595q0 33 -22.5 53t-54.5 20q-39 0 -61.5 -23t-22.5 -62q0 -37 51 -120q53 32 73 53q37 35 37 79z" />
    <glyph glyph-name="quotesingle" unicode="'" horiz-adv-x="278" 
d="M114 438v274h50v-274h-50z" />
    <glyph glyph-name="parenleft" unicode="(" horiz-adv-x="296" 
d="M289 -136v-52q-120 67 -184 202q-59 123 -59 274q0 153 57 274q64 136 186 202v-52q-175 -136 -175 -424t175 -424z" />
    <glyph glyph-name="parenright" unicode=")" horiz-adv-x="296" 
d="M7 -188v52q175 136 175 424t-175 424v52q120 -67 184 -202q59 -123 59 -274q0 -153 -57 -274q-64 -136 -186 -202z" />
    <glyph glyph-name="asterisk" unicode="*" horiz-adv-x="278" 
d="M31 652l84 -30l-3 90h54l-5 -90l86 30l12 -48l-87 -25l54 -68l-43 -27l-45 76l-46 -76l-43 27l55 70l-85 23z" />
    <glyph glyph-name="plus" unicode="+" horiz-adv-x="600" 
d="M275 278v228h50v-228h228v-50h-228v-228h-50v228h-228v50h228z" />
    <glyph glyph-name="comma" unicode="," horiz-adv-x="278" 
d="M101 0v116h76v-108q0 -86 -52 -166l-34 25q45 52 43 133h-33z" />
    <glyph glyph-name="hyphen" unicode="-" horiz-adv-x="370" 
d="M325 232h-280v62h280v-62z" />
    <glyph glyph-name="hyphen" unicode="&#x2010;" horiz-adv-x="370" 
d="M325 232h-280v62h280v-62z" />
    <glyph glyph-name="period" unicode="." horiz-adv-x="278" 
d="M177 116v-116h-76v116h76z" />
    <glyph glyph-name="slash" unicode="/" horiz-adv-x="463" 
d="M13 -18l384 748h53l-384 -748h-53z" />
    <glyph glyph-name="zero" unicode="0" horiz-adv-x="556" 
d="M95 356q0 -175 66 -255q47 -57 117 -57t117 57q66 80 66 255t-66 255q-47 57 -117 57t-117 -57q-66 -80 -66 -255zM27 356q0 184 76 282q67 86 175 86t175 -86q76 -98 76 -282t-76 -281q-67 -87 -175 -87t-175 87q-76 97 -76 281z" />
    <glyph glyph-name="one" unicode="1" horiz-adv-x="556" 
d="M145 547v56q53 -3 88 19q45 27 46 90h58v-712h-60v578q-52 -31 -132 -31z" />
    <glyph glyph-name="two" unicode="2" horiz-adv-x="556" 
d="M147 387l-80 8q-25 54 -25 119q0 95 63.5 152.5t169.5 57.5q118 0 184 -62q63 -61 63 -168q0 -209 -381 -436v-2h348v-56h-445v56q76 52 152 105q114 80 175 150q83 96 83 187q0 76 -49.5 123t-125.5 47q-77 0 -125 -41q-52 -45 -52 -120q0 -67 45 -120z" />
    <glyph glyph-name="three" unicode="3" horiz-adv-x="556" 
d="M30 205l68 22q0 -101 66 -148q49 -35 119 -35t119.5 40.5t49.5 108.5q0 95 -65 129q-42 21 -132 21h-33q-37 0 -59 -2v59q20 -1 59 -1h31q88 0 136.5 32.5t48.5 91.5q0 71 -42.5 108t-113.5 37q-152 0 -170 -156l-68 18q49 194 245 194q109 0 169 -64q48 -52 48 -125
q0 -68 -39 -112t-110 -47v-2q45 2 89 -25q74 -45 74 -153q0 -98 -70 -155q-65 -53 -166 -53q-110 0 -177 56t-77 161z" />
    <glyph glyph-name="four" unicode="4" horiz-adv-x="556" 
d="M34 178v56l311 478h66v-478h113v-56h-113v-178h-60v178h-317zM349 609l-247 -375h249v375h-2z" />
    <glyph glyph-name="five" unicode="5" horiz-adv-x="556" 
d="M119 306l-58 4l21 402h376v-62h-320l-13 -237h2q43 79 152 79q127 0 188 -89q45 -66 45 -159t-47 -161q-65 -95 -203 -95q-94 0 -154 53t-76 151l66 19q8 -77 51 -122t113 -45q79 0 126 44q56 52 56 157q0 88 -45 139.5t-130 51.5q-57 0 -97 -38q-37 -34 -53 -92z" />
    <glyph glyph-name="six" unicode="6" horiz-adv-x="556" 
d="M516 565l-68 -22q-14 125 -143 125q-107 0 -156 -88q-34 -62 -47 -196h2q29 43 79 69.5t102 26.5q96 0 159 -53q78 -67 78 -200q0 -100 -57 -165q-65 -74 -185 -74q-130 0 -193 102q-53 88 -53 242q0 392 272 392q167 0 210 -159zM289 424q-81 0 -134 -50.5t-53 -125.5
q0 -91 55 -149q51 -55 125 -55q72 0 119 45q53 50 53 139q0 81 -36 133q-43 63 -129 63z" />
    <glyph glyph-name="seven" unicode="7" horiz-adv-x="556" 
d="M54 491v221h458v-56q-113 -141 -180.5 -317t-72.5 -339h-68q18 194 77 342q55 141 174 308h-328v-159h-60z" />
    <glyph glyph-name="eight" unicode="8" horiz-adv-x="556" 
d="M278 349q-87 0 -134 -42t-47 -113q0 -68 52 -109t129 -41t129 41t52 109q0 71 -47 113t-134 42zM278 405q82 0 127 50q34 38 34 83q0 49 -30 83q-42 47 -131 47q-84 0 -126 -42q-35 -35 -35 -88q0 -50 40 -89q46 -44 121 -44zM278 724q131 0 190 -72q39 -49 39 -115
q0 -63 -42 -108q-36 -39 -79 -45v-2q60 -19 100.5 -68t40.5 -111q0 -104 -70 -161q-66 -54 -179 -54q-97 0 -165 48q-84 58 -84 167q0 66 42 115q38 45 99 64v2q-43 6 -79 45q-42 45 -42 108q0 66 40 115q58 72 189 72z" />
    <glyph glyph-name="nine" unicode="9" horiz-adv-x="556" 
d="M40 147l68 22q14 -125 143 -125q107 0 156 88q34 62 47 196h-2q-29 -43 -79 -69.5t-102 -26.5q-95 0 -159 55q-78 67 -78 198q0 99 57 165q63 74 179 74q252 0 252 -332q0 -404 -272 -404q-167 0 -210 159zM267 288q81 0 134 51t53 127q0 83 -54 142.5t-126 59.5
t-119 -45q-53 -50 -53 -139q0 -79 36 -132q43 -64 129 -64z" />
    <glyph glyph-name="colon" unicode=":" horiz-adv-x="278" 
d="M177 116v-116h-76v116h76zM177 473v-116h-76v116h76z" />
    <glyph glyph-name="semicolon" unicode=";" horiz-adv-x="278" 
d="M101 0v116h76v-108q0 -86 -52 -166l-34 25q45 52 43 133h-33zM177 473v-116h-76v116h76z" />
    <glyph glyph-name="less" unicode="&#x3c;" horiz-adv-x="600" 
d="M553 47v-55l-506 234v54l506 234v-55l-445 -206z" />
    <glyph glyph-name="equal" unicode="=" horiz-adv-x="600" 
d="M553 375v-50h-506v50h506zM553 181v-50h-506v50h506z" />
    <glyph glyph-name="greater" unicode="&#x3e;" horiz-adv-x="600" 
d="M553 280v-54l-506 -234v55l445 206l-445 206v55z" />
    <glyph glyph-name="question" unicode="?" horiz-adv-x="481" 
d="M253 174h-60v60q0 54 46 102l86 82q46 52 46 116q0 59 -38 96.5t-95 37.5q-58 0 -97 -36.5t-39 -90.5q0 -39 27 -107l-75 22q-12 36 -12 93q0 69 43 119q52 62 153 62q88 0 144.5 -54t56.5 -142q0 -80 -48 -140q-45 -44 -90 -87q-48 -48 -48 -99v-34zM261 0h-76v116h76
v-116z" />
    <glyph glyph-name="at" unicode="@" horiz-adv-x="800" 
d="M243 288q0 -47 24 -76.5t66 -29.5q69 0 125 95q49 83 49 153q0 37 -21 64q-24 29 -62 29q-76 0 -132 -86q-49 -76 -49 -149zM549 492l27 68h57l-104 -298q-11 -32 -11 -50q0 -30 26 -30q77 0 132 87q48 76 48 153q0 117 -96 191q-88 67 -209 67q-140 0 -240 -93
q-103 -96 -103 -235q0 -142 102 -233q97 -87 236 -87q88 0 163.5 34.5t117.5 99.5h61q-48 -84 -140.5 -134t-194.5 -50q-173 0 -284 104t-111 273q0 152 115 261.5t276 109.5q146 0 249 -85q108 -89 108 -226q0 -98 -68 -188q-75 -99 -174 -99q-33 0 -50 19t-14 50h-2
q-71 -69 -148 -69q-64 0 -103.5 43t-39.5 106q0 111 69 200q76 98 190 98q80 0 115 -87z" />
    <glyph glyph-name="A" unicode="A" horiz-adv-x="611" 
d="M285 712h55l276 -712h-73l-80 214h-313l-85 -214h-70zM173 270h268l-132 351z" />
    <glyph glyph-name="B" unicode="B" horiz-adv-x="648" 
d="M133 650v-238h218q164 0 164 120q0 64 -38 91t-120 27h-224zM65 0v712h306q122 0 177 -68q35 -45 35 -99q0 -134 -130 -159v-2q75 -7 117 -61q39 -51 39 -125q0 -84 -54 -138q-62 -60 -177 -60h-313zM133 350v-288h246q81 0 125 43q37 36 37 93q0 69 -49 110.5t-137 41.5
h-222z" />
    <glyph glyph-name="C" unicode="C" horiz-adv-x="648" 
d="M626 546l-68 -34q-24 79 -67 115q-50 41 -141 41q-116 0 -179 -86q-59 -82 -59 -226q0 -312 249 -312q148 0 200 151l65 -35q-70 -178 -278 -178q-136 0 -215 87q-89 96 -89 287q0 190 91 288q80 86 208 86q108 0 173 -42q69 -43 110 -142z" />
    <glyph glyph-name="D" unicode="D" horiz-adv-x="685" 
d="M148 650v-588h189q122 0 184 93q52 78 52 201q0 117 -48 197q-60 97 -174 97h-203zM80 0v712h280q148 0 222 -119q59 -95 59 -237q0 -138 -63 -234q-80 -122 -237 -122h-261z" />
    <glyph glyph-name="E" unicode="E" horiz-adv-x="593" 
d="M65 0v712h466v-62h-398v-252h359v-62h-359v-274h419v-62h-487z" />
    <glyph glyph-name="F" unicode="F" horiz-adv-x="556" 
d="M65 0v712h464v-62h-396v-238h354v-62h-354v-350h-68z" />
    <glyph glyph-name="G" unicode="G" horiz-adv-x="685" 
d="M634 551l-65 -35q-50 152 -199 152q-126 0 -197 -100q-61 -87 -61 -212t57 -211q65 -101 183 -101q108 0 166 75q49 63 49 154v39h-264v62h324v-374h-60v103h-2q-24 -61 -86 -93q-55 -28 -127 -28q-149 0 -232 110q-76 101 -76 264q0 157 78 259q87 115 243 115
q191 0 269 -179z" />
    <glyph glyph-name="H" unicode="H" horiz-adv-x="722" 
d="M80 0v712h68v-314h426v314h68v-712h-68v336h-426v-336h-68z" />
    <glyph glyph-name="I" unicode="I" horiz-adv-x="222" 
d="M77 0v712h68v-712h-68z" />
    <glyph glyph-name="J" unicode="J" horiz-adv-x="481" 
d="M336 712h68v-499q0 -231 -202 -231q-100 0 -155 50t-55 146v18l68 12v-26q0 -63 35 -99q37 -39 107 -39q134 0 134 164v504z" />
    <glyph glyph-name="K" unicode="K" horiz-adv-x="630" 
d="M65 0v712h68v-396l387 396h95l-278 -280l302 -432h-83l-268 383l-155 -157v-226h-68z" />
    <glyph glyph-name="L" unicode="L" horiz-adv-x="556" 
d="M80 0v712h68v-650h393v-62h-461z" />
    <glyph glyph-name="M" unicode="M" horiz-adv-x="778" 
d="M74 0v712h83l231 -596h2l231 596h83v-712h-68v582h-2l-222 -582h-46l-222 582h-2v-582h-68z" />
    <glyph glyph-name="N" unicode="N" horiz-adv-x="704" 
d="M80 0v712h67l407 -598h2v598h68v-712h-67l-407 598h-2v-598h-68z" />
    <glyph glyph-name="O" unicode="O" horiz-adv-x="704" 
d="M44 356q0 155 75 258q84 116 233 116t233 -116q75 -103 75 -258t-75 -258q-84 -116 -233 -116t-233 116q-75 103 -75 258zM112 356q0 -125 57 -211q65 -101 183 -101t183 101q57 86 57 211t-57 212q-65 100 -183 100t-183 -100q-57 -87 -57 -212z" />
    <glyph glyph-name="P" unicode="P" horiz-adv-x="630" 
d="M80 0v712h351q96 0 145 -63q40 -52 40 -131q0 -195 -216 -195h-252v-323h-68zM148 650v-265h226q174 0 174 133q0 132 -146 132h-254z" />
    <glyph glyph-name="Q" unicode="Q" horiz-adv-x="704" 
d="M697 31l-46 -49l-90 88q-81 -88 -209 -88q-149 0 -233 116q-75 103 -75 258t75 258q84 116 233 116t233 -116q75 -103 75 -258q0 -137 -61 -237zM112 356q0 -125 57 -211q65 -101 183 -101t183 101q57 86 57 211t-57 212q-65 100 -183 100t-183 -100q-57 -87 -57 -212z
" />
    <glyph glyph-name="R" unicode="R" horiz-adv-x="611" 
d="M133 650v-272h211q176 0 176 136t-165 136h-222zM65 0v712h315q103 0 159 -61q49 -54 49 -137q0 -180 -209 -195l228 -319h-86l-226 316h-162v-316h-68z" />
    <glyph glyph-name="S" unicode="S" horiz-adv-x="611" 
d="M40 179l68 35q9 -170 200 -170q85 0 140 40t55 105q0 89 -110 128q-102 32 -205 64q-110 50 -110 168q0 89 76 139q64 42 151 42q199 0 254 -159l-63 -34q-41 131 -191 131q-61 0 -107 -30q-52 -34 -52 -89q0 -86 110 -123q102 -30 205 -61q110 -49 110 -165
q0 -104 -69.5 -161t-193.5 -57q-232 0 -268 197z" />
    <glyph glyph-name="T" unicode="T" horiz-adv-x="536" 
d="M11 650v62h514v-62h-223v-650h-68v650h-223z" />
    <glyph glyph-name="U" unicode="U" horiz-adv-x="666" 
d="M595 712v-481q0 -120 -70.5 -184.5t-191.5 -64.5t-190 63q-72 66 -72 186v481h68v-479q0 -98 57 -147q50 -42 137 -42t137 42q57 49 57 147v479h68z" />
    <glyph glyph-name="V" unicode="V" horiz-adv-x="593" 
d="M266 0l-266 712h73l223 -604l227 604h70l-267 -712h-60z" />
    <glyph glyph-name="W" unicode="W" horiz-adv-x="870" 
d="M216 0l-213 712h71l165 -592h2l171 592h50l176 -588h2l157 588h70l-203 -712h-55l-173 574h-2l-165 -574h-53z" />
    <glyph glyph-name="X" unicode="X" horiz-adv-x="630" 
d="M269 388l-234 324h88l193 -281l195 281h85l-234 -328l268 -384h-85l-230 343l-236 -343h-79z" />
    <glyph glyph-name="Y" unicode="Y" horiz-adv-x="610" 
d="M271 0v297l-268 415h82l222 -352l222 352h78l-268 -415v-297h-68z" />
    <glyph glyph-name="Z" unicode="Z" horiz-adv-x="574" 
d="M47 650v62h503v-44l-431 -606h427v-62h-522v44l431 606h-408z" />
    <glyph glyph-name="bracketleft" unicode="[" horiz-adv-x="296" 
d="M262 -188h-169v952h169v-50h-109v-852h109v-50z" />
    <glyph glyph-name="backslash" unicode="\" horiz-adv-x="463" 
d="M397 -18l-384 748h53l384 -748h-53z" />
    <glyph glyph-name="bracketright" unicode="]" horiz-adv-x="296" 
d="M143 -138v852h-109v50h169v-952h-169v50h109z" />
    <glyph glyph-name="asciicircum" unicode="^" horiz-adv-x="600" 
d="M102 259h-58l230 453h52l230 -453h-57l-199 393z" />
    <glyph glyph-name="underscore" unicode="_" 
d="M500 -125h-500v50h500v-50z" />
    <glyph glyph-name="grave" unicode="`" horiz-adv-x="185" 
d="M103 558l-137 139h77l111 -139h-51z" />
    <glyph glyph-name="a" unicode="a" horiz-adv-x="481" 
d="M93 116q0 -37 32 -56q27 -16 66 -16q56 0 102 34q59 43 59 121v55l-173 -48q-86 -24 -86 -90zM481 44v-50q-67 0 -88 11q-33 16 -37 73h-2q-51 -90 -168 -90q-64 0 -106 31q-47 34 -47 96q0 68 55 107q36 25 117 46l147 38v48q0 88 -120 88q-116 0 -119 -116l-68 12
q30 154 189 154q115 0 156 -57q22 -32 22 -93v-235q0 -42 19 -55q13 -8 50 -8z" />
    <glyph glyph-name="b" unicode="b" 
d="M63 0v712h60v-306h2q16 40 54 63t87 23q86 0 142 -66q59 -71 59 -192q0 -122 -70 -190q-58 -56 -134 -56q-105 0 -138 86h-2v-74h-60zM407 240q0 90 -40.5 143t-108.5 53q-138 0 -138 -196q0 -83 29 -133q36 -63 113 -63q65 0 105 53t40 143z" />
    <glyph glyph-name="c" unicode="c" horiz-adv-x="463" 
d="M449 373l-61 -12q-34 75 -132 75q-67 0 -112 -48q-51 -55 -51 -148t50 -147q44 -49 107 -49q95 0 132 78l61 -15q-53 -119 -193 -119q-92 0 -153 69q-64 72 -64 183q0 113 63.5 182.5t167.5 69.5q131 0 185 -119z" />
    <glyph glyph-name="d" unicode="d" 
d="M377 0v65h-2q-38 -77 -140 -77q-78 0 -135 56q-67 68 -67 190q0 121 59 192q56 66 142 66q95 0 141 -75h2v295h60v-712h-60zM93 240q0 -90 40 -143t105 -53q77 0 113 63q29 50 29 133q0 196 -138 196q-68 0 -108.5 -53t-40.5 -143z" />
    <glyph glyph-name="e" unicode="e" 
d="M101 292h298q-27 144 -149 144q-62 0 -101.5 -41t-47.5 -103zM467 242h-366v-13q0 -84 37 -133q40 -52 117 -52q110 0 156 102l56 -15q-58 -143 -217 -143q-94 0 -153 65q-64 68 -64 187t64 188q59 64 153 64q102 0 160 -72q53 -66 57 -178z" />
    <glyph glyph-name="f" unicode="f" horiz-adv-x="296" 
d="M118 0v430h-105v50h105v152q0 98 118 98q34 0 53 -10v-57q-19 11 -55 11q-56 0 -56 -71v-123h105v-50h-105v-430h-60z" />
    <glyph glyph-name="g" unicode="g" horiz-adv-x="519" 
d="M35 -76l61 13q14 -129 149 -129q74 0 107 29q44 37 44 137v99l-1 2q-51 -87 -158 -87q-76 0 -134 56q-70 68 -70 190q0 121 59 192q56 66 142 66q120 0 160 -91h2v79h60v-501q0 -100 -32 -151q-49 -76 -179 -76q-96 0 -146 38q-55 42 -64 134zM394 231q0 205 -152 205
q-68 0 -108.5 -53t-40.5 -143t40.5 -143t108.5 -53q152 0 152 187z" />
    <glyph glyph-name="h" unicode="h" 
d="M63 0v712h60v-303h2q41 83 143 83q169 0 169 -167v-325h-60v307q0 70 -30 101q-28 28 -87 28q-58 0 -95 -37q-42 -42 -42 -119v-280h-60z" />
    <glyph glyph-name="i" unicode="i" horiz-adv-x="186" 
d="M63 0v480h60v-480h-60zM63 584v94h60v-94h-60z" />
    <glyph glyph-name="j" unicode="j" horiz-adv-x="186" 
d="M63 -117v597h60v-617q0 -111 -101 -111q-48 0 -78 17v63q28 -24 74 -24q29 0 39 21q6 14 6 54zM63 584v94h60v-94h-60z" />
    <glyph glyph-name="k" unicode="k" horiz-adv-x="481" 
d="M63 0v712h60v-485l262 253h76l-195 -189l214 -291h-73l-184 250l-100 -97v-153h-60z" />
    <glyph glyph-name="l" unicode="l" horiz-adv-x="186" 
d="M63 0v712h60v-712h-60z" />
    <glyph glyph-name="m" unicode="m" horiz-adv-x="760" 
d="M68 0v480h60v-77h2q37 89 133 89q56 0 93.5 -27t44.5 -78h2q40 105 150 105q90 0 122 -66q17 -36 17 -109v-317h-60v310q0 57 -12 83q-21 43 -80 43q-61 0 -96 -50q-34 -46 -34 -119v-267h-60v302q0 61 -14 90q-21 44 -78 44t-93.5 -47t-36.5 -125v-264h-60z" />
    <glyph glyph-name="n" unicode="n" 
d="M63 0v480h60v-70h2q41 82 143 82q169 0 169 -167v-325h-60v307q0 70 -30 101q-28 28 -87 28q-58 0 -95 -37q-42 -42 -42 -119v-280h-60z" />
    <glyph glyph-name="o" unicode="o" 
d="M33 240q0 119 64 188q59 64 153 64t154 -64q63 -69 63 -188t-61.5 -185.5t-155.5 -66.5t-153 65q-64 68 -64 187zM250 436q-68 0 -112.5 -53t-44.5 -143q0 -91 44 -143.5t113 -52.5t113 52.5t44 143.5q0 90 -44.5 143t-112.5 53z" />
    <glyph glyph-name="p" unicode="p" 
d="M63 -248v728h60v-72h2q15 36 53.5 60t87.5 24q84 0 140 -62q61 -67 61 -182q0 -137 -63 -205q-51 -55 -134 -55q-111 0 -145 80h-2v-316h-60zM407 240q0 90 -40 143t-104 53q-143 0 -143 -196t142 -196q65 0 105 53t40 143z" />
    <glyph glyph-name="q" unicode="q" 
d="M437 -248h-60v322h-2q-38 -86 -145 -86q-83 0 -134 55q-63 68 -63 205q0 115 61 182q56 62 140 62q49 0 89 -25q37 -23 52 -59h2v72h60v-728zM93 240q0 -90 40 -143t105 -53q142 0 142 196t-143 196q-64 0 -104 -53t-40 -143z" />
    <glyph glyph-name="r" unicode="r" horiz-adv-x="296" 
d="M72 0v480h60v-67h2q52 79 130 79q13 0 43 -2v-52q-19 4 -40 4q-67 0 -101 -44.5t-34 -121.5v-276h-60z" />
    <glyph glyph-name="s" unicode="s" horiz-adv-x="444" 
d="M25 115l58 18q20 -52 51.5 -73.5t87.5 -21.5q46 0 77 19q40 26 40 79q0 58 -74 79l-136 34q-74 30 -74 111q0 55 43.5 93.5t120.5 38.5q150 0 181 -109l-57 -14q-26 73 -115 73q-113 0 -113 -84q0 -50 74 -70l136 -38q74 -34 74 -116q0 -62 -48 -103q-51 -43 -138 -43
q-133 0 -188 127z" />
    <glyph glyph-name="t" unicode="t" horiz-adv-x="278" 
d="M8 430v50h98v205h60v-205h104v-50h-104v-317q0 -35 5 -48q7 -21 30 -21q29 0 66 24v-60q-45 -20 -79 -20q-82 0 -82 85v357h-98z" />
    <glyph glyph-name="u" unicode="u" 
d="M377 0v70h-2q-41 -82 -143 -82q-169 0 -169 167v325h60v-307q0 -70 29 -99.5t88 -29.5q58 0 97.5 39.5t39.5 116.5v280h60v-480h-60z" />
    <glyph glyph-name="v" unicode="v" horiz-adv-x="407" 
d="M167 0l-165 480h59l131 -385h2l149 385h62l-191 -480h-47z" />
    <glyph glyph-name="w" unicode="w" horiz-adv-x="667" 
d="M163 0l-164 480h62l126 -377h2l120 377h49l120 -377h2l126 377h62l-164 -480h-50l-120 387h-2l-119 -387h-50z" />
    <glyph glyph-name="x" unicode="x" horiz-adv-x="426" 
d="M4 0l177 252l-158 228h67l125 -181l127 181h67l-160 -228l173 -252h-66l-141 205l-144 -205h-67z" />
    <glyph glyph-name="y" unicode="y" horiz-adv-x="426" 
d="M175 -1l-165 481h56l139 -404h2l158 404h57l-237 -609q-23 -59 -39 -80q-29 -39 -78 -39q-24 0 -64 18v62q43 -24 62 -24q35 0 60 65z" />
    <glyph glyph-name="z" unicode="z" horiz-adv-x="370" 
d="M10 41l262 389h-240v50h324v-33l-267 -397h271v-50h-350v41z" />
    <glyph glyph-name="braceleft" unicode="{" horiz-adv-x="333" 
d="M83 263v50q72 -3 72 157v167q0 51 19 85q23 42 69 42h50v-50h-38q-28 0 -36 -39q-4 -17 -4 -62v-160q0 -48 -16 -92q-20 -54 -56 -72v-2q36 -18 56 -72q16 -44 16 -92v-160q0 -45 4 -62q8 -39 36 -39h38v-50h-50q-46 0 -69 42q-19 34 -19 85v167q0 160 -72 157z" />
    <glyph glyph-name="bar" unicode="|" horiz-adv-x="222" 
d="M86 -18v748h50v-748h-50z" />
    <glyph glyph-name="braceright" unicode="}" horiz-adv-x="333" 
d="M250 313v-50q-72 3 -72 -157v-167q0 -51 -18 -85q-24 -42 -70 -42h-50v50h38q28 0 36 39q4 17 4 62v160q0 48 16 92q20 54 56 72v2q-36 18 -56 72q-16 44 -16 92v160q0 45 -4 62q-8 39 -36 39h-38v50h50q46 0 70 -42q18 -34 18 -85v-167q0 -160 72 -157z" />
    <glyph glyph-name="asciitilde" unicode="~" horiz-adv-x="600" 
d="M495 316v0l36 -36q-30 -43 -52 -60q-32 -26 -73 -26q-36 0 -103 34t-114 34q-50 0 -84 -72l-36 36q42 86 120 86q44 0 119.5 -34t97.5 -34q28 0 51 23q11 11 38 49z" />
    <glyph glyph-name="exclamdown" unicode="&#xa1;" horiz-adv-x="278" 
d="M105 -220v383l9 160h50l9 -160v-383h-68zM101 376v116h76v-116h-76z" />
    <glyph glyph-name="cent" unicode="&#xa2;" horiz-adv-x="556" 
d="M260 45v389q-55 -11 -91 -59q-39 -54 -39 -135q0 -83 40 -136q35 -48 90 -59zM260 -120v110q-82 9 -136 78t-54 172t51 170.5t139 79.5v110h50v-108q125 -6 176 -119l-61 -12q-31 70 -115 75v-392q79 12 109 78l61 -15q-48 -108 -170 -119v-108h-50z" />
    <glyph glyph-name="sterling" unicode="&#xa3;" horiz-adv-x="556" 
d="M117 38q58 0 81 32q-41 23 -84 23q-40 0 -40 -30q0 -25 43 -25zM404 339v-56h-119q27 -47 27 -90q0 -54 -30 -97q28 -14 56 -27q42 -19 71 -19q43 0 57 40q8 23 8 75v22l68 -7q0 -192 -135 -192q-54 0 -155 54q-17 -22 -52.5 -38t-72.5 -16q-113 0 -113 82q0 34 31 55
q27 18 65 18q61 0 117 -26q18 31 17 78q-1 35 -36 88h-138v56h92q-59 59 -79 87q-39 56 -39 116q0 97 83 145q62 37 148 37q93 0 155 -49q69 -55 70 -151l-68 -11q-1 71 -46.5 110t-113.5 39q-72 0 -114 -30q-46 -33 -46 -96q0 -51 53 -109l86 -88h153z" />
    <glyph glyph-name="currency" unicode="&#xa4;" horiz-adv-x="556" 
d="M30 140l54 57q-54 67 -54 153q0 87 55 155l-55 55l38 38l56 -55q68 55 154 55t155 -54l55 54l38 -38l-53 -58q53 -65 53 -152q0 -83 -53 -154l53 -56l-38 -38l-53 58q-67 -58 -157 -58q-91 0 -157 58l-53 -58zM80 350q0 -82 58 -140t140 -58t140 58t58 140t-58 140
t-140 58t-140 -58t-58 -140z" />
    <glyph glyph-name="yen" unicode="&#xa5;" horiz-adv-x="556" 
d="M244 0v161h-163v50h163v81l-9 16h-154v50h126l-200 354h77l194 -350l197 350h74l-200 -354h126v-50h-154l-9 -16v-81h163v-50h-163v-161h-68z" />
    <glyph glyph-name="brokenbar" unicode="&#xa6;" horiz-adv-x="222" 
d="M86 -18v275h50v-275h-50zM86 455v275h50v-275h-50z" />
    <glyph glyph-name="section" unicode="&#xa7;" horiz-adv-x="556" 
d="M458 647l-45 -45q-76 66 -147 66q-36 0 -61 -16q-30 -19 -30 -52q0 -51 47 -73l182 -85q92 -43 92 -126q0 -51 -29.5 -94t-79.5 -58q84 -40 84 -118q0 -71 -59 -115q-53 -39 -127 -39q-68 0 -125 24q-46 21 -108 69l48 47q87 -78 180 -78q48 0 83 22q40 25 40 70
q0 48 -104 95l-128 58q-58 26 -82 54q-27 32 -27 84q0 50 35 92q32 40 82 56q-72 45 -72 110q0 61 50 100q45 35 109 35q106 0 192 -83zM227 243l111 -50q90 54 90 122q0 50 -61 78l-137 63q-100 -60 -100 -118q0 -35 33 -60q18 -14 64 -35z" />
    <glyph glyph-name="dieresis" unicode="&#xa8;" horiz-adv-x="185" 
d="M-20 568v102h60v-102h-60zM145 568v102h60v-102h-60z" />
    <glyph glyph-name="copyright" unicode="&#xa9;" horiz-adv-x="800" 
d="M400 -18q-154 0 -264 110t-110 264q0 155 110 264.5t264 109.5q155 0 264.5 -109.5t109.5 -264.5t-109.5 -264.5t-264.5 -109.5zM714 356q0 136 -90.5 230t-223.5 94q-132 0 -223 -94.5t-91 -229.5q0 -136 90.5 -230t223.5 -94q134 0 224 94t90 230zM550 278h56
q-17 -74 -69 -119t-124 -45q-105 0 -169 69t-64 173q0 106 62 173.5t168 67.5q77 0 131.5 -42t64.5 -117h-56q-10 47 -46 77q-39 32 -93 32q-79 0 -125 -54.5t-46 -136.5q0 -78 47 -133q49 -59 126 -59q54 0 91 32.5t46 81.5z" />
    <glyph glyph-name="ordfeminine" unicode="&#xaa;" horiz-adv-x="313" 
d="M216 535v43l-110 -29q-51 -13 -51 -50q0 -39 59 -39q37 0 69.5 23t32.5 52zM302 460v-38q-43 0 -57 7q-22 10 -26 47h-2q-33 -54 -107 -54q-41 0 -68 18q-31 21 -31 58q0 43 36 66q23 16 76 29l93 23v20q0 24 -10 34q-17 16 -68 16q-72 0 -75 -61l-44 7q19 92 121 92
q120 0 120 -90v-141q0 -23 11 -29q7 -4 31 -4z" />
    <glyph glyph-name="guillemotleft" unicode="&#xab;" horiz-adv-x="352" 
d="M21 263l122 187l48 -32l-103 -155l103 -155l-48 -32zM161 263l122 187l48 -32l-103 -155l103 -155l-48 -32z" />
    <glyph glyph-name="logicalnot" unicode="&#xac;" horiz-adv-x="600" 
d="M503 108v217h-456v50h506v-267h-50z" />
    <glyph glyph-name="registered" unicode="&#xae;" horiz-adv-x="800" 
d="M314 332v-203h-50v456h165q62 0 101 -32t39 -94q0 -54 -28.5 -88.5t-79.5 -38.5l128 -203h-62l-121 203h-92zM314 541v-165h103q51 0 74 15q28 19 28 68q0 82 -102 82h-103zM400 -18q-154 0 -264 110t-110 264q0 155 110 264.5t264 109.5q155 0 264.5 -109.5
t109.5 -264.5t-109.5 -264.5t-264.5 -109.5zM714 356q0 136 -90.5 230t-223.5 94q-132 0 -223 -94.5t-91 -229.5q0 -136 90.5 -230t223.5 -94q134 0 224 94t90 230z" />
    <glyph glyph-name="degree" unicode="&#xb0;" horiz-adv-x="400" 
d="M57 581q0 59 42 101t101 42t101 -42t42 -101t-42 -101t-101 -42t-101 42t-42 101zM95 581q0 -43 31 -74t74 -31q44 0 74.5 31t30.5 74q0 44 -30.5 74.5t-74.5 30.5q-43 0 -74 -30.5t-31 -74.5z" />
    <glyph glyph-name="plusminus" unicode="&#xb1;" horiz-adv-x="600" 
d="M275 323v183h50v-183h228v-50h-228v-183h-50v183h-228v50h228zM47 0v50h506v-50h-506z" />
    <glyph glyph-name="twosuperior" unicode="&#xb2;" horiz-adv-x="361" 
d="M33 290v44q48 31 95 62q71 47 109 88q51 55 51 105q0 42 -28.5 66.5t-74.5 24.5t-75 -22t-29 -64q0 -43 28 -72l-62 5q-16 32 -16 71q0 61 48 96q41 30 104 30q59 0 99 -26q56 -36 56 -116q0 -70 -86 -149q-61 -56 -140 -98v-1h210v-44h-289z" />
    <glyph glyph-name="threesuperior" unicode="&#xb3;" horiz-adv-x="361" 
d="M20 413l50 13q0 -99 114 -99q42 0 71 19q33 22 33 60q0 53 -39 72q-26 12 -83 12h-22q-24 0 -38 -1v46q13 -1 38 -1h20q53 0 84 19t31 51q0 76 -96 76q-94 0 -104 -83l-50 11q31 116 159 116q71 0 110 -38q31 -31 31 -75q0 -41 -24 -66q-27 -28 -73 -29v-2q29 2 58 -14
q48 -27 48 -92q0 -59 -44 -92t-109 -33q-71 0 -114.5 33.5t-50.5 96.5z" />
    <glyph glyph-name="acute" unicode="&#xb4;" horiz-adv-x="185" 
d="M31 558l111 139h77l-137 -139h-51z" />
    <glyph glyph-name="paragraph" unicode="&#xb6;" horiz-adv-x="600" 
d="M273 -90v416q-84 0 -144 54q-63 56 -63 139q0 89 58 141t165 52h217v-802h-50v758h-133v-758h-50z" />
    <glyph glyph-name="cedilla" unicode="&#xb8;" horiz-adv-x="185" 
d="M22 -189l15 30q34 -18 65 -18q66 0 66 49q0 42 -53 42q-20 0 -43 -10l-15 13l60 83h38l-46 -58l2 -2q13 6 38 6q26 0 47 -14q28 -19 28 -58q0 -30 -22 -52q-30 -31 -91 -31q-40 0 -89 20z" />
    <glyph glyph-name="onesuperior" unicode="&#xb9;" horiz-adv-x="361" 
d="M90 608v44q86 -2 87 65h49v-427h-50v336q-33 -18 -86 -18z" />
    <glyph glyph-name="ordmasculine" unicode="&#xba;" horiz-adv-x="325" 
d="M22 574q0 64 35 105q38 45 105 45t105 -45q35 -41 36 -105q1 -65 -34 -107q-38 -45 -106 -45t-106 45q-35 42 -35 107zM66 572q0 -47 21 -77q26 -35 75 -35q50 0 76 35q21 30 21 77q0 48 -21 78q-26 36 -76 36q-49 0 -75 -36q-21 -30 -21 -78z" />
    <glyph glyph-name="guillemotright" unicode="&#xbb;" horiz-adv-x="352" 
d="M161 108l103 155l-103 155l48 32l122 -187l-122 -187zM21 108l103 155l-103 155l48 32l122 -187l-122 -187z" />
    <glyph glyph-name="onequarter" unicode="&#xbc;" horiz-adv-x="834" 
d="M194 -18h-54l441 748h55zM90 608v44q86 -2 87 65h49v-427h-50v336q-33 -18 -86 -18zM432 102v38l202 287h54v-281h62v-44h-62v-102h-50v102h-206zM487 146h151v213h-2z" />
    <glyph glyph-name="onehalf" unicode="&#xbd;" horiz-adv-x="834" 
d="M164 -18h-54l441 748h55zM90 608v44q86 -2 87 65h49v-427h-50v336q-33 -18 -86 -18zM446 0v44q48 31 95 62q71 47 109 88q51 55 51 105q0 42 -28.5 66.5t-74.5 24.5t-75 -22t-29 -64q0 -43 28 -72l-62 5q-16 32 -16 71q0 61 48 96q41 30 104 30q59 0 99 -26
q56 -36 56 -116q0 -70 -86 -149q-61 -56 -140 -98v-1h210v-44h-289z" />
    <glyph glyph-name="threequarters" unicode="&#xbe;" horiz-adv-x="834" 
d="M254 -18h-54l441 748h55zM16 413l50 13q-1 -99 115 -99q44 0 74 21t30 58q0 51 -44 73q-24 12 -78 12h-22q-24 0 -38 -1v46q13 -1 38 -1h20q53 0 84 19t31 50q0 76 -96 76q-94 0 -105 -83l-50 11q31 116 160 116q71 0 110 -38q31 -31 31 -75q0 -41 -24 -66
q-27 -28 -73 -29v-2q28 2 58 -14q48 -27 48 -92q0 -59 -44 -92t-110 -33q-71 0 -114.5 33.5t-50.5 96.5zM475 102v38l202 287h54v-281h62v-44h-62v-102h-50v102h-206zM530 146h151v213h-2z" />
    <glyph glyph-name="questiondown" unicode="&#xbf;" horiz-adv-x="481" 
d="M228 318h60v-60q0 -54 -46 -102l-86 -82q-46 -52 -46 -116q0 -59 38 -96.5t95 -37.5q58 0 97 36.5t39 90.5q0 39 -27 107l75 -22q12 -36 12 -93q0 -69 -42 -119q-53 -62 -154 -62q-88 0 -144.5 54t-56.5 142q0 80 48 140q45 44 90 87q48 48 48 99v34zM220 492h76v-116
h-76v116z" />
    <glyph glyph-name="Agrave" unicode="&#xc0;" horiz-adv-x="611" 
d="M285 712h55l276 -712h-73l-80 214h-313l-85 -214h-70zM173 270h268l-132 351zM316 755l-137 139h77l111 -139h-51z" />
    <glyph glyph-name="Aacute" unicode="&#xc1;" horiz-adv-x="611" 
d="M285 712h55l276 -712h-73l-80 214h-313l-85 -214h-70zM173 270h268l-132 351zM244 755l111 139h77l-137 -139h-51z" />
    <glyph glyph-name="Acircumflex" unicode="&#xc2;" horiz-adv-x="611" 
d="M285 712h55l276 -712h-73l-80 214h-313l-85 -214h-70zM173 270h268l-132 351zM305 857l-83 -102h-63l112 139h67l114 -139h-65z" />
    <glyph glyph-name="Atilde" unicode="&#xc3;" horiz-adv-x="611" 
d="M285 712h55l276 -712h-73l-80 214h-313l-85 -214h-70zM173 270h268l-132 351zM186 766v0h-37q6 53 41 80q23 18 44 18q28 0 75.5 -21.5t70.5 -21.5q31 0 44 47h38q-3 -38 -24 -66q-23 -31 -58 -31q-25 0 -76 23q-45 20 -70 20q-33 0 -48 -48z" />
    <glyph glyph-name="Adieresis" unicode="&#xc4;" horiz-adv-x="611" 
d="M285 712h55l276 -712h-73l-80 214h-313l-85 -214h-70zM173 270h268l-132 351zM193 765v102h60v-102h-60zM358 765v102h60v-102h-60z" />
    <glyph glyph-name="Aring" unicode="&#xc5;" horiz-adv-x="611" 
d="M285 712h55l276 -712h-73l-80 214h-313l-85 -214h-70zM173 270h268l-132 351zM245 831q0 -28 19.5 -47.5t47.5 -19.5t48 19.5t20 47.5t-20 48t-48 20t-47.5 -20t-19.5 -48zM213 831q0 41 29 70.5t70 29.5t70.5 -29.5t29.5 -70.5t-29.5 -70t-70.5 -29t-70 29t-29 70z" />
    <glyph glyph-name="AE" unicode="&#xc6;" horiz-adv-x="1000" 
d="M460 632l-226 -364h228v364h-2zM-15 0l457 712h499v-62h-411v-252h370v-62h-370v-274h429v-62h-497v206h-270l-128 -206h-79z" />
    <glyph glyph-name="Ccedilla" unicode="&#xc7;" horiz-adv-x="648" 
d="M626 546l-68 -34q-24 79 -67 115q-50 41 -141 41q-116 0 -179 -86q-59 -82 -59 -226q0 -312 249 -312q148 0 200 151l65 -35q-70 -178 -278 -178q-136 0 -215 87q-89 96 -89 287q0 190 91 288q80 86 208 86q108 0 173 -42q69 -43 110 -142zM254 -189l15 30q34 -18 65 -18
q66 0 66 49q0 42 -53 42q-20 0 -43 -10l-15 13l60 83h38l-46 -58l2 -2q13 6 38 6q26 0 47 -14q28 -19 28 -58q0 -30 -22 -52q-30 -31 -91 -31q-40 0 -89 20z" />
    <glyph glyph-name="Egrave" unicode="&#xc8;" horiz-adv-x="593" 
d="M65 0v712h466v-62h-398v-252h359v-62h-359v-274h419v-62h-487zM307 755l-137 139h77l111 -139h-51z" />
    <glyph glyph-name="Eacute" unicode="&#xc9;" horiz-adv-x="593" 
d="M65 0v712h466v-62h-398v-252h359v-62h-359v-274h419v-62h-487zM235 755l111 139h77l-137 -139h-51z" />
    <glyph glyph-name="Ecircumflex" unicode="&#xca;" horiz-adv-x="593" 
d="M65 0v712h466v-62h-398v-252h359v-62h-359v-274h419v-62h-487zM296 857l-83 -102h-63l112 139h67l114 -139h-65z" />
    <glyph glyph-name="Edieresis" unicode="&#xcb;" horiz-adv-x="593" 
d="M65 0v712h466v-62h-398v-252h359v-62h-359v-274h419v-62h-487zM184 765v102h60v-102h-60zM349 765v102h60v-102h-60z" />
    <glyph glyph-name="Igrave" unicode="&#xcc;" horiz-adv-x="222" 
d="M77 0v712h68v-712h-68zM122 755l-137 139h77l111 -139h-51z" />
    <glyph glyph-name="Iacute" unicode="&#xcd;" horiz-adv-x="222" 
d="M77 0v712h68v-712h-68zM50 755l111 139h77l-137 -139h-51z" />
    <glyph glyph-name="Icircumflex" unicode="&#xce;" horiz-adv-x="222" 
d="M77 0v712h68v-712h-68zM111 857l-83 -102h-63l112 139h67l114 -139h-65z" />
    <glyph glyph-name="Idieresis" unicode="&#xcf;" horiz-adv-x="222" 
d="M77 0v712h68v-712h-68zM-1 765v102h60v-102h-60zM164 765v102h60v-102h-60z" />
    <glyph glyph-name="Eth" unicode="&#xd0;" horiz-adv-x="685" 
d="M148 650v-238h202v-44h-202v-306h217q103 0 160 98q48 82 48 196t-48 197q-57 97 -160 97h-217zM80 412v300h292q134 0 208 -119q61 -100 61 -237q0 -134 -64 -232q-81 -124 -236 -124h-261v368h-55v44h55z" />
    <glyph glyph-name="Ntilde" unicode="&#xd1;" horiz-adv-x="704" 
d="M80 0v712h67l407 -598h2v598h68v-712h-67l-407 598h-2v-598h-68zM233 766v0h-37q6 53 41 80q23 18 44 18q28 0 75.5 -21.5t70.5 -21.5q31 0 44 47h38q-3 -38 -24 -66q-23 -31 -58 -31q-25 0 -76 23q-45 20 -70 20q-33 0 -48 -48z" />
    <glyph glyph-name="Ograve" unicode="&#xd2;" horiz-adv-x="704" 
d="M44 356q0 155 75 258q84 116 233 116t233 -116q75 -103 75 -258t-75 -258q-84 -116 -233 -116t-233 116q-75 103 -75 258zM112 356q0 -125 57 -211q65 -101 183 -101t183 101q57 86 57 211t-57 212q-65 100 -183 100t-183 -100q-57 -87 -57 -212zM363 755l-137 139h77
l111 -139h-51z" />
    <glyph glyph-name="Oacute" unicode="&#xd3;" horiz-adv-x="704" 
d="M44 356q0 155 75 258q84 116 233 116t233 -116q75 -103 75 -258t-75 -258q-84 -116 -233 -116t-233 116q-75 103 -75 258zM112 356q0 -125 57 -211q65 -101 183 -101t183 101q57 86 57 211t-57 212q-65 100 -183 100t-183 -100q-57 -87 -57 -212zM291 755l111 139h77
l-137 -139h-51z" />
    <glyph glyph-name="Ocircumflex" unicode="&#xd4;" horiz-adv-x="704" 
d="M44 356q0 155 75 258q84 116 233 116t233 -116q75 -103 75 -258t-75 -258q-84 -116 -233 -116t-233 116q-75 103 -75 258zM112 356q0 -125 57 -211q65 -101 183 -101t183 101q57 86 57 211t-57 212q-65 100 -183 100t-183 -100q-57 -87 -57 -212zM352 857l-83 -102h-63
l112 139h67l114 -139h-65z" />
    <glyph glyph-name="Otilde" unicode="&#xd5;" horiz-adv-x="704" 
d="M44 356q0 155 75 258q84 116 233 116t233 -116q75 -103 75 -258t-75 -258q-84 -116 -233 -116t-233 116q-75 103 -75 258zM112 356q0 -125 57 -211q65 -101 183 -101t183 101q57 86 57 211t-57 212q-65 100 -183 100t-183 -100q-57 -87 -57 -212zM233 766v0h-37
q6 53 41 80q23 18 44 18q28 0 75.5 -21.5t70.5 -21.5q31 0 44 47h38q-3 -38 -24 -66q-23 -31 -58 -31q-25 0 -76 23q-45 20 -70 20q-33 0 -48 -48z" />
    <glyph glyph-name="Odieresis" unicode="&#xd6;" horiz-adv-x="704" 
d="M44 356q0 155 75 258q84 116 233 116t233 -116q75 -103 75 -258t-75 -258q-84 -116 -233 -116t-233 116q-75 103 -75 258zM112 356q0 -125 57 -211q65 -101 183 -101t183 101q57 86 57 211t-57 212q-65 100 -183 100t-183 -100q-57 -87 -57 -212zM240 765v102h60v-102
h-60zM405 765v102h60v-102h-60z" />
    <glyph glyph-name="multiply" unicode="&#xd7;" horiz-adv-x="600" 
d="M110 479l190 -189l190 189l36 -36l-191 -190l191 -190l-36 -36l-190 191l-190 -191l-36 36l191 190l-191 190z" />
    <glyph glyph-name="Oslash" unicode="&#xd8;" horiz-adv-x="704" 
d="M159 162l357 431q-63 75 -164 75q-118 0 -183 -100q-57 -87 -57 -212q0 -110 47 -194zM546 548l-356 -431q61 -73 162 -73q118 0 183 101q57 86 57 211q0 112 -46 192zM46 26l68 82q-70 99 -70 248q0 155 75 258q84 116 233 116q128 0 207 -86l61 74l40 -33l-68 -82
q68 -101 68 -247q0 -155 -75 -258q-84 -116 -233 -116q-126 0 -205 84l-60 -72z" />
    <glyph glyph-name="Ugrave" unicode="&#xd9;" horiz-adv-x="666" 
d="M595 712v-481q0 -120 -70.5 -184.5t-191.5 -64.5t-190 63q-72 66 -72 186v481h68v-479q0 -98 57 -147q50 -42 137 -42t137 42q57 49 57 147v479h68zM344 755l-137 139h77l111 -139h-51z" />
    <glyph glyph-name="Uacute" unicode="&#xda;" horiz-adv-x="666" 
d="M595 712v-481q0 -120 -70.5 -184.5t-191.5 -64.5t-190 63q-72 66 -72 186v481h68v-479q0 -98 57 -147q50 -42 137 -42t137 42q57 49 57 147v479h68zM272 755l111 139h77l-137 -139h-51z" />
    <glyph glyph-name="Ucircumflex" unicode="&#xdb;" horiz-adv-x="666" 
d="M595 712v-481q0 -120 -70.5 -184.5t-191.5 -64.5t-190 63q-72 66 -72 186v481h68v-479q0 -98 57 -147q50 -42 137 -42t137 42q57 49 57 147v479h68zM333 857l-83 -102h-63l112 139h67l114 -139h-65z" />
    <glyph glyph-name="Udieresis" unicode="&#xdc;" horiz-adv-x="666" 
d="M595 712v-481q0 -120 -70.5 -184.5t-191.5 -64.5t-190 63q-72 66 -72 186v481h68v-479q0 -98 57 -147q50 -42 137 -42t137 42q57 49 57 147v479h68zM221 765v102h60v-102h-60zM386 765v102h60v-102h-60z" />
    <glyph glyph-name="Yacute" unicode="&#xdd;" horiz-adv-x="610" 
d="M271 0v297l-268 415h82l222 -352l222 352h78l-268 -415v-297h-68zM244 755l111 139h77l-137 -139h-51z" />
    <glyph glyph-name="Thorn" unicode="&#xde;" horiz-adv-x="630" 
d="M80 0v712h68v-113h296q82 0 130 -59q42 -54 42 -135q0 -93 -62 -148q-53 -47 -126 -47h-280v-210h-68zM148 537v-265h274q46 0 83 31q43 38 43 102q0 132 -116 132h-284z" />
    <glyph glyph-name="germandbls" unicode="&#xdf;" horiz-adv-x="464" 
d="M52 0v526q0 97 45 150.5t133 53.5q82 0 126 -48q41 -44 41 -118q0 -117 -111 -153v-2q154 -30 154 -226q0 -86 -39 -140q-44 -61 -125 -61q-54 0 -105 30v69q66 -43 109 -43q53 0 80 53q20 41 20 99q0 184 -198 184h-25v56h20q160 0 160 126q0 54 -27.5 86t-81.5 32
q-116 0 -116 -142v-532h-60z" />
    <glyph glyph-name="agrave" unicode="&#xe0;" horiz-adv-x="481" 
d="M93 116q0 -37 32 -56q27 -16 66 -16q56 0 102 34q59 43 59 121v55l-173 -48q-86 -24 -86 -90zM481 44v-50q-67 0 -88 11q-33 16 -37 73h-2q-51 -90 -168 -90q-64 0 -106 31q-47 34 -47 96q0 68 55 107q36 25 117 46l147 38v48q0 88 -120 88q-116 0 -119 -116l-68 12
q30 154 189 154q115 0 156 -57q22 -32 22 -93v-235q0 -42 19 -55q13 -8 50 -8zM251 558l-137 139h77l111 -139h-51z" />
    <glyph glyph-name="aacute" unicode="&#xe1;" horiz-adv-x="481" 
d="M93 116q0 -37 32 -56q27 -16 66 -16q56 0 102 34q59 43 59 121v55l-173 -48q-86 -24 -86 -90zM481 44v-50q-67 0 -88 11q-33 16 -37 73h-2q-51 -90 -168 -90q-64 0 -106 31q-47 34 -47 96q0 68 55 107q36 25 117 46l147 38v48q0 88 -120 88q-116 0 -119 -116l-68 12
q30 154 189 154q115 0 156 -57q22 -32 22 -93v-235q0 -42 19 -55q13 -8 50 -8zM179 558l111 139h77l-137 -139h-51z" />
    <glyph glyph-name="acircumflex" unicode="&#xe2;" horiz-adv-x="481" 
d="M93 116q0 -37 32 -56q27 -16 66 -16q56 0 102 34q59 43 59 121v55l-173 -48q-86 -24 -86 -90zM481 44v-50q-67 0 -88 11q-33 16 -37 73h-2q-51 -90 -168 -90q-64 0 -106 31q-47 34 -47 96q0 68 55 107q36 25 117 46l147 38v48q0 88 -120 88q-116 0 -119 -116l-68 12
q30 154 189 154q115 0 156 -57q22 -32 22 -93v-235q0 -42 19 -55q13 -8 50 -8zM240 660l-83 -102h-63l112 139h67l114 -139h-65z" />
    <glyph glyph-name="atilde" unicode="&#xe3;" horiz-adv-x="481" 
d="M93 116q0 -37 32 -56q27 -16 66 -16q56 0 102 34q59 43 59 121v55l-173 -48q-86 -24 -86 -90zM481 44v-50q-67 0 -88 11q-33 16 -37 73h-2q-51 -90 -168 -90q-64 0 -106 31q-47 34 -47 96q0 68 55 107q36 25 117 46l147 38v48q0 88 -120 88q-116 0 -119 -116l-68 12
q30 154 189 154q115 0 156 -57q22 -32 22 -93v-235q0 -42 19 -55q13 -8 50 -8zM121 569v0h-37q6 53 41 80q23 18 44 18q28 0 75.5 -21.5t70.5 -21.5q31 0 44 47h38q-3 -38 -24 -66q-23 -31 -58 -31q-25 0 -76 23q-45 20 -70 20q-33 0 -48 -48z" />
    <glyph glyph-name="adieresis" unicode="&#xe4;" horiz-adv-x="481" 
d="M93 116q0 -37 32 -56q27 -16 66 -16q56 0 102 34q59 43 59 121v55l-173 -48q-86 -24 -86 -90zM481 44v-50q-67 0 -88 11q-33 16 -37 73h-2q-51 -90 -168 -90q-64 0 -106 31q-47 34 -47 96q0 68 55 107q36 25 117 46l147 38v48q0 88 -120 88q-116 0 -119 -116l-68 12
q30 154 189 154q115 0 156 -57q22 -32 22 -93v-235q0 -42 19 -55q13 -8 50 -8zM128 568v102h60v-102h-60zM293 568v102h60v-102h-60z" />
    <glyph glyph-name="aring" unicode="&#xe5;" horiz-adv-x="481" 
d="M93 116q0 -37 32 -56q27 -16 66 -16q56 0 102 34q59 43 59 121v55l-173 -48q-86 -24 -86 -90zM481 44v-50q-67 0 -88 11q-33 16 -37 73h-2q-51 -90 -168 -90q-64 0 -106 31q-47 34 -47 96q0 68 55 107q36 25 117 46l147 38v48q0 88 -120 88q-116 0 -119 -116l-68 12
q30 154 189 154q115 0 156 -57q22 -32 22 -93v-235q0 -42 19 -55q13 -8 50 -8zM173 644q0 -28 19.5 -47.5t47.5 -19.5t48 19.5t20 47.5t-20 48t-48 20t-47.5 -20t-19.5 -48zM141 644q0 41 29 70.5t70 29.5t70.5 -29.5t29.5 -70.5t-29.5 -70t-70.5 -29t-70 29t-29 70z" />
    <glyph glyph-name="ae" unicode="&#xe6;" horiz-adv-x="815" 
d="M93 116q0 -36 31 -56q25 -16 58 -16q72 0 123 39q56 44 56 117v54l-182 -48q-86 -23 -86 -90zM421 292h301q-12 65 -39 98q-37 46 -110 46q-64 0 -104 -40.5t-48 -103.5zM790 242h-369v-13q0 -84 37 -133q40 -52 117 -52q113 0 159 102l56 -15q-58 -143 -212 -143
q-64 0 -115 28q-54 29 -76 81q-66 -109 -201 -109q-64 0 -106 31q-47 34 -47 96q0 69 55 107q37 27 117 46l156 38v48q0 88 -125 88q-120 0 -123 -116l-68 12q30 154 189 154q129 0 175 -77q59 77 164 77q102 0 160 -72q53 -66 57 -178z" />
    <glyph glyph-name="ccedilla" unicode="&#xe7;" horiz-adv-x="463" 
d="M449 373l-61 -12q-34 75 -132 75q-67 0 -112 -48q-51 -55 -51 -148t50 -147q44 -49 107 -49q95 0 132 78l61 -15q-53 -119 -193 -119q-92 0 -153 69q-64 72 -64 183q0 113 63.5 182.5t167.5 69.5q131 0 185 -119zM161 -189l15 30q34 -18 65 -18q66 0 66 49q0 42 -53 42
q-20 0 -43 -10l-15 13l60 83h38l-46 -58l2 -2q13 6 38 6q26 0 47 -14q28 -19 28 -58q0 -30 -22 -52q-30 -31 -91 -31q-40 0 -89 20z" />
    <glyph glyph-name="egrave" unicode="&#xe8;" 
d="M101 292h298q-27 144 -149 144q-62 0 -101.5 -41t-47.5 -103zM467 242h-366v-13q0 -84 37 -133q40 -52 117 -52q110 0 156 102l56 -15q-58 -143 -217 -143q-94 0 -153 65q-64 68 -64 187t64 188q59 64 153 64q102 0 160 -72q53 -66 57 -178zM261 558l-137 139h77
l111 -139h-51z" />
    <glyph glyph-name="eacute" unicode="&#xe9;" 
d="M101 292h298q-27 144 -149 144q-62 0 -101.5 -41t-47.5 -103zM467 242h-366v-13q0 -84 37 -133q40 -52 117 -52q110 0 156 102l56 -15q-58 -143 -217 -143q-94 0 -153 65q-64 68 -64 187t64 188q59 64 153 64q102 0 160 -72q53 -66 57 -178zM189 558l111 139h77
l-137 -139h-51z" />
    <glyph glyph-name="ecircumflex" unicode="&#xea;" 
d="M101 292h298q-27 144 -149 144q-62 0 -101.5 -41t-47.5 -103zM467 242h-366v-13q0 -84 37 -133q40 -52 117 -52q110 0 156 102l56 -15q-58 -143 -217 -143q-94 0 -153 65q-64 68 -64 187t64 188q59 64 153 64q102 0 160 -72q53 -66 57 -178zM250 660l-83 -102h-63
l112 139h67l114 -139h-65z" />
    <glyph glyph-name="edieresis" unicode="&#xeb;" 
d="M101 292h298q-27 144 -149 144q-62 0 -101.5 -41t-47.5 -103zM467 242h-366v-13q0 -84 37 -133q40 -52 117 -52q110 0 156 102l56 -15q-58 -143 -217 -143q-94 0 -153 65q-64 68 -64 187t64 188q59 64 153 64q102 0 160 -72q53 -66 57 -178zM138 568v102h60v-102h-60z
M303 568v102h60v-102h-60z" />
    <glyph glyph-name="igrave" unicode="&#xec;" horiz-adv-x="186" 
d="M63 0v480h60v-480h-60zM104 558l-137 139h77l111 -139h-51z" />
    <glyph glyph-name="iacute" unicode="&#xed;" horiz-adv-x="186" 
d="M63 0v480h60v-480h-60zM32 558l111 139h77l-137 -139h-51z" />
    <glyph glyph-name="icircumflex" unicode="&#xee;" horiz-adv-x="186" 
d="M63 0v480h60v-480h-60zM93 660l-83 -102h-63l112 139h67l114 -139h-65z" />
    <glyph glyph-name="idieresis" unicode="&#xef;" horiz-adv-x="186" 
d="M63 0v480h60v-480h-60zM-19 568v102h60v-102h-60zM146 568v102h60v-102h-60z" />
    <glyph glyph-name="eth" unicode="&#xf0;" 
d="M121 567l-29 28l81 54q-14 12 -60 44l37 37q25 -14 71 -48l81 54l29 -26l-79 -54q215 -178 215 -397q0 -131 -57 -201t-160 -70q-94 0 -153 65q-64 68 -64 187t64 188q59 64 153 64q59 0 117 -49h2q-54 92 -163 182zM407 240q0 100 -45 150q-40 46 -112 46
q-71 0 -112 -46q-45 -51 -45 -150t45 -150q41 -46 112 -46q72 0 112 46q45 50 45 150z" />
    <glyph glyph-name="ntilde" unicode="&#xf1;" 
d="M63 0v480h60v-70h2q41 82 143 82q169 0 169 -167v-325h-60v307q0 70 -30 101q-28 28 -87 28q-58 0 -95 -37q-42 -42 -42 -119v-280h-60zM131 569v0h-37q6 53 41 80q23 18 44 18q28 0 75.5 -21.5t70.5 -21.5q31 0 44 47h38q-3 -38 -24 -66q-23 -31 -58 -31q-25 0 -76 23
q-45 20 -70 20q-33 0 -48 -48z" />
    <glyph glyph-name="ograve" unicode="&#xf2;" 
d="M33 240q0 119 64 188q59 64 153 64t154 -64q63 -69 63 -188t-61.5 -185.5t-155.5 -66.5t-153 65q-64 68 -64 187zM250 436q-68 0 -112.5 -53t-44.5 -143q0 -91 44 -143.5t113 -52.5t113 52.5t44 143.5q0 90 -44.5 143t-112.5 53zM261 558l-137 139h77l111 -139h-51z" />
    <glyph glyph-name="oacute" unicode="&#xf3;" 
d="M33 240q0 119 64 188q59 64 153 64t154 -64q63 -69 63 -188t-61.5 -185.5t-155.5 -66.5t-153 65q-64 68 -64 187zM250 436q-68 0 -112.5 -53t-44.5 -143q0 -91 44 -143.5t113 -52.5t113 52.5t44 143.5q0 90 -44.5 143t-112.5 53zM189 558l111 139h77l-137 -139h-51z" />
    <glyph glyph-name="ocircumflex" unicode="&#xf4;" 
d="M33 240q0 119 64 188q59 64 153 64t154 -64q63 -69 63 -188t-61.5 -185.5t-155.5 -66.5t-153 65q-64 68 -64 187zM250 436q-68 0 -112.5 -53t-44.5 -143q0 -91 44 -143.5t113 -52.5t113 52.5t44 143.5q0 90 -44.5 143t-112.5 53zM250 660l-83 -102h-63l112 139h67
l114 -139h-65z" />
    <glyph glyph-name="otilde" unicode="&#xf5;" 
d="M33 240q0 119 64 188q59 64 153 64t154 -64q63 -69 63 -188t-61.5 -185.5t-155.5 -66.5t-153 65q-64 68 -64 187zM250 436q-68 0 -112.5 -53t-44.5 -143q0 -91 44 -143.5t113 -52.5t113 52.5t44 143.5q0 90 -44.5 143t-112.5 53zM131 569v0h-37q6 53 41 80q23 18 44 18
q28 0 75.5 -21.5t70.5 -21.5q31 0 44 47h38q-3 -38 -24 -66q-23 -31 -58 -31q-25 0 -76 23q-45 20 -70 20q-33 0 -48 -48z" />
    <glyph glyph-name="odieresis" unicode="&#xf6;" 
d="M33 240q0 119 64 188q59 64 153 64t154 -64q63 -69 63 -188t-61.5 -185.5t-155.5 -66.5t-153 65q-64 68 -64 187zM250 436q-68 0 -112.5 -53t-44.5 -143q0 -91 44 -143.5t113 -52.5t113 52.5t44 143.5q0 90 -44.5 143t-112.5 53zM138 568v102h60v-102h-60zM303 568v102
h60v-102h-60z" />
    <glyph glyph-name="divide" unicode="&#xf7;" horiz-adv-x="600" 
d="M553 228h-506v50h506v-50zM244 460q0 23 16.5 39.5t39.5 16.5t39.5 -16.5t16.5 -39.5q0 -21 -16.5 -38.5t-38.5 -17.5q-23 0 -40 16.5t-17 39.5zM244 46q0 23 16.5 39.5t39.5 16.5t39.5 -16.5t16.5 -39.5q0 -21 -16.5 -38.5t-38.5 -17.5q-23 0 -40 16.5t-17 39.5z" />
    <glyph glyph-name="oslash" unicode="&#xf8;" 
d="M143 91l185 322q-34 23 -78 23q-68 0 -112.5 -53t-44.5 -143q0 -94 50 -149zM357 389l-185 -322q33 -23 78 -23q69 0 113 52.5t44 143.5q0 97 -50 149zM85 -9l28 48q-80 65 -80 201q0 119 64 188q59 64 153 64q59 0 108 -27l25 44l32 -20l-27 -46q79 -71 79 -203
q0 -119 -61.5 -185.5t-155.5 -66.5q-60 0 -107 29l-25 -44z" />
    <glyph glyph-name="ugrave" unicode="&#xf9;" 
d="M377 0v70h-2q-41 -82 -143 -82q-169 0 -169 167v325h60v-307q0 -70 29 -99.5t88 -29.5q58 0 97.5 39.5t39.5 116.5v280h60v-480h-60zM261 558l-137 139h77l111 -139h-51z" />
    <glyph glyph-name="uacute" unicode="&#xfa;" 
d="M377 0v70h-2q-41 -82 -143 -82q-169 0 -169 167v325h60v-307q0 -70 29 -99.5t88 -29.5q58 0 97.5 39.5t39.5 116.5v280h60v-480h-60zM189 558l111 139h77l-137 -139h-51z" />
    <glyph glyph-name="ucircumflex" unicode="&#xfb;" 
d="M377 0v70h-2q-41 -82 -143 -82q-169 0 -169 167v325h60v-307q0 -70 29 -99.5t88 -29.5q58 0 97.5 39.5t39.5 116.5v280h60v-480h-60zM250 660l-83 -102h-63l112 139h67l114 -139h-65z" />
    <glyph glyph-name="udieresis" unicode="&#xfc;" 
d="M377 0v70h-2q-41 -82 -143 -82q-169 0 -169 167v325h60v-307q0 -70 29 -99.5t88 -29.5q58 0 97.5 39.5t39.5 116.5v280h60v-480h-60zM138 568v102h60v-102h-60zM303 568v102h60v-102h-60z" />
    <glyph glyph-name="yacute" unicode="&#xfd;" horiz-adv-x="426" 
d="M175 -1l-165 481h56l139 -404h2l158 404h57l-237 -609q-23 -59 -39 -80q-29 -39 -78 -39q-24 0 -64 18v62q43 -24 62 -24q35 0 60 65zM152 558l111 139h77l-137 -139h-51z" />
    <glyph glyph-name="thorn" unicode="&#xfe;" 
d="M63 -248v960h60v-310h2q14 40 53 65t88 25q86 0 142 -66q59 -71 59 -192q0 -122 -70 -190q-58 -56 -134 -56q-105 0 -138 86h-2v-322h-60zM407 240q0 90 -40.5 143t-108.5 53q-138 0 -138 -196t138 -196q68 0 108.5 53t40.5 143z" />
    <glyph glyph-name="ydieresis" unicode="&#xff;" horiz-adv-x="426" 
d="M175 -1l-165 481h56l139 -404h2l158 404h57l-237 -609q-23 -59 -39 -80q-29 -39 -78 -39q-24 0 -64 18v62q43 -24 62 -24q35 0 60 65zM101 568v102h60v-102h-60zM266 568v102h60v-102h-60z" />
    <glyph glyph-name="dotlessi" unicode="&#x131;" horiz-adv-x="186" 
d="M63 0v480h60v-480h-60z" />
    <glyph glyph-name="Lslash" unicode="&#x141;" horiz-adv-x="556" 
d="M80 0v299l-61 -36v56l61 36v357h68v-317l199 117v-56l-199 -117v-277h393v-62h-461z" />
    <glyph glyph-name="lslash" unicode="&#x142;" horiz-adv-x="186" 
d="M63 0v356l-64 -47v52l64 47v304h60v-261l64 47v-52l-64 -47v-399h-60z" />
    <glyph glyph-name="OE" unicode="&#x152;" horiz-adv-x="1056" 
d="M523 60v592q-74 16 -114 16q-145 0 -223 -86q-74 -82 -74 -226t74 -226q78 -86 223 -86q59 0 114 16zM591 336v-274h440v-62h-493q-88 -18 -135 -18q-171 0 -266 103q-93 99 -93 271q0 171 91.5 272.5t256.5 101.5q63 0 153 -18h463v-62h-417v-252h376v-62h-376z" />
    <glyph glyph-name="oe" unicode="&#x153;" horiz-adv-x="889" 
d="M475 292h305q-12 66 -40 98q-39 46 -118 46q-60 0 -99.5 -41t-47.5 -103zM848 242h-373v-13q0 -84 37 -133q40 -52 117 -52q117 0 163 102l56 -15q-58 -143 -212 -143q-145 0 -198 112q-24 -57 -80 -87q-48 -25 -108 -25q-94 0 -153 65q-64 68 -64 187t64 188
q59 64 153 64q132 0 188 -112q64 112 193 112q102 0 160 -72q53 -66 57 -178zM254 436q-69 0 -113 -50q-48 -54 -48 -146t48 -146q44 -50 113 -50t114 50q47 54 47 146t-47 146q-45 50 -114 50z" />
    <glyph glyph-name="Scaron" unicode="&#x160;" horiz-adv-x="611" 
d="M40 179l68 35q9 -170 200 -170q85 0 140 40t55 105q0 89 -110 128q-102 32 -205 64q-110 50 -110 168q0 89 76 139q64 42 151 42q199 0 254 -159l-63 -34q-41 131 -191 131q-61 0 -107 -30q-52 -34 -52 -89q0 -86 110 -123q102 -30 205 -61q110 -49 110 -165
q0 -104 -69.5 -161t-193.5 -57q-232 0 -268 197zM305 792l82 102h65l-114 -139h-67l-112 139h64z" />
    <glyph glyph-name="scaron" unicode="&#x161;" horiz-adv-x="444" 
d="M25 115l58 18q20 -52 51.5 -73.5t87.5 -21.5q46 0 77 19q40 26 40 79q0 58 -74 79l-136 34q-74 30 -74 111q0 55 43.5 93.5t120.5 38.5q150 0 181 -109l-57 -14q-26 73 -115 73q-113 0 -113 -84q0 -50 74 -70l136 -38q74 -34 74 -116q0 -62 -48 -103q-51 -43 -138 -43
q-133 0 -188 127zM222 595l82 102h65l-114 -139h-67l-112 139h64z" />
    <glyph glyph-name="Ydieresis" unicode="&#x178;" horiz-adv-x="610" 
d="M271 0v297l-268 415h82l222 -352l222 352h78l-268 -415v-297h-68zM193 765v102h60v-102h-60zM358 765v102h60v-102h-60z" />
    <glyph glyph-name="Zcaron" unicode="&#x17d;" horiz-adv-x="574" 
d="M47 650v62h503v-44l-431 -606h427v-62h-522v44l431 606h-408zM287 792l82 102h65l-114 -139h-67l-112 139h64z" />
    <glyph glyph-name="zcaron" unicode="&#x17e;" horiz-adv-x="370" 
d="M10 41l262 389h-240v50h324v-33l-267 -397h271v-50h-350v41zM185 595l82 102h65l-114 -139h-67l-112 139h64z" />
    <glyph glyph-name="florin" unicode="&#x192;" horiz-adv-x="556" 
d="M416 333l-4 -50h-117l-43 -376q-8 -66 -21 -95q-29 -60 -99 -60q-31 0 -60 8l-5 2l7 56q34 -10 51 -10q59 0 67 70l46 405h-113l6 50h112l29 236q9 74 29 107q29 48 92 48q13 0 68 -12l-6 -53l-14 4q-18 5 -38 5q-38 0 -54 -27q-12 -18 -17 -62l-30 -246h114z" />
    <glyph glyph-name="circumflex" unicode="&#x2c6;" horiz-adv-x="185" 
d="M92 660l-83 -102h-63l112 139h67l114 -139h-65z" />
    <glyph glyph-name="caron" unicode="&#x2c7;" horiz-adv-x="185" 
d="M92 595l82 102h65l-114 -139h-67l-112 139h64z" />
    <glyph glyph-name="macron" unicode="&#xaf;" horiz-adv-x="185" 
d="M221 597h-257v44h257v-44z" />
    <glyph glyph-name="macron" unicode="&#x2c9;" horiz-adv-x="185" 
d="M221 597h-257v44h257v-44z" />
    <glyph glyph-name="breve" unicode="&#x2d8;" horiz-adv-x="185" 
d="M-52 690h39q17 -82 105 -82q89 0 106 82h39q-2 -41 -35 -78q-42 -48 -110 -48t-110 48q-32 37 -34 78z" />
    <glyph glyph-name="dotaccent" unicode="&#x2d9;" horiz-adv-x="185" 
d="M63 568v102h60v-102h-60z" />
    <glyph glyph-name="ring" unicode="&#x2da;" horiz-adv-x="185" 
d="M25 644q0 -28 19.5 -47.5t47.5 -19.5t48 19.5t20 47.5t-20 48t-48 20t-47.5 -20t-19.5 -48zM-7 644q0 41 29 70.5t70 29.5t70.5 -29.5t29.5 -70.5t-29.5 -70t-70.5 -29t-70 29t-29 70z" />
    <glyph glyph-name="ogonek" unicode="&#x2db;" horiz-adv-x="185" 
d="M257 5h44q-88 -65 -88 -98q0 -54 57 -54q17 0 33 7v-36q-24 -9 -51 -9q-95 0 -95 77q0 57 100 113z" />
    <glyph glyph-name="tilde" unicode="&#x2dc;" horiz-adv-x="185" 
d="M-27 569v0h-37q6 53 41 80q23 18 44 18q28 0 75.5 -21.5t70.5 -21.5q31 0 44 47h38q-3 -38 -24 -66q-23 -31 -58 -31q-25 0 -76 23q-45 20 -70 20q-33 0 -48 -48z" />
    <glyph glyph-name="hungarumlaut" unicode="&#x2dd;" horiz-adv-x="185" 
d="M-37 558l111 139h77l-137 -139h-51zM98 558l111 139h77l-137 -139h-51z" />
    <glyph glyph-name="mu" unicode="&#xb5;" 
d="M63 -248v728h60v-307q0 -70 29 -99.5t88 -29.5q58 0 97.5 39.5t39.5 116.5v280h60v-480h-60v76h-2q-40 -88 -143 -88q-63 0 -109 44v-280h-60z" />
    <glyph glyph-name="mu" unicode="&#x3bc;" 
d="M63 -248v728h60v-307q0 -70 29 -99.5t88 -29.5q58 0 97.5 39.5t39.5 116.5v280h60v-480h-60v76h-2q-40 -88 -143 -88q-63 0 -109 44v-280h-60z" />
    <glyph glyph-name="endash" unicode="&#x2013;" 
d="M0 235v56h500v-56h-500z" />
    <glyph glyph-name="emdash" unicode="&#x2014;" horiz-adv-x="1000" 
d="M0 235v56h1000v-56h-1000z" />
    <glyph glyph-name="quoteleft" unicode="&#x2018;" horiz-adv-x="278" 
d="M172 554v-116h-76v108q0 103 52 166l34 -25q-45 -52 -43 -133h33z" />
    <glyph glyph-name="quoteright" unicode="&#x2019;" horiz-adv-x="278" 
d="M106 596v116h76v-108q0 -86 -52 -166l-34 25q45 52 43 133h-33z" />
    <glyph glyph-name="quotesinglbase" unicode="&#x201a;" horiz-adv-x="278" 
d="M106 0v116h76v-108q0 -103 -52 -166l-34 25q45 52 43 133h-33z" />
    <glyph glyph-name="quotedblleft" unicode="&#x201c;" horiz-adv-x="315" 
d="M129 554v-116h-76v108q0 103 52 166l34 -25q-45 -52 -43 -133h33zM252 554v-116h-76v108q0 103 52 166l34 -25q-45 -52 -43 -133h33z" />
    <glyph glyph-name="quotedblright" unicode="&#x201d;" horiz-adv-x="315" 
d="M186 596v116h76v-108q0 -86 -52 -166l-34 25q45 52 43 133h-33zM63 596v116h76v-108q0 -86 -52 -166l-34 25q45 52 43 133h-33z" />
    <glyph glyph-name="quotedblbase" unicode="&#x201e;" horiz-adv-x="315" 
d="M186 0v116h76v-108q0 -103 -52 -166l-34 25q45 52 43 133h-33zM63 0v116h76v-108q0 -103 -52 -166l-34 25q45 52 43 133h-33z" />
    <glyph glyph-name="dagger" unicode="&#x2020;" horiz-adv-x="554" 
d="M247 472v240h60v-240h173v-56h-173v-506h-60v506h-173v56h173z" />
    <glyph glyph-name="daggerdbl" unicode="&#x2021;" horiz-adv-x="554" 
d="M247 492v220h60v-220h173v-56h-173v-243h173v-56h-173v-227h-60v227h-173v56h173v243h-173v56h173z" />
    <glyph glyph-name="bullet" unicode="&#x2022;" 
d="M72 356q0 74 52.5 126t125.5 52q74 0 126 -52t52 -126q0 -73 -52 -125.5t-126 -52.5q-73 0 -125.5 52.5t-52.5 125.5z" />
    <glyph glyph-name="ellipsis" unicode="&#x2026;" horiz-adv-x="1000" 
d="M205 116v-116h-76v116h76zM538 116v-116h-76v116h76zM871 116v-116h-76v116h76z" />
    <glyph glyph-name="perthousand" unicode="&#x2030;" horiz-adv-x="1000" 
d="M169 366q-66 0 -97 61q-24 47 -24 118t24 118q31 61 97 61t97 -61q24 -47 24 -118t-24 -118q-31 -61 -97 -61zM169 416q39 0 58 47q13 33 13 82t-13 83q-19 46 -58 46t-57 -46q-14 -35 -14 -83t14 -82q18 -47 57 -47zM557 722l-394 -759l-39 21l392 756zM531 -12
q-66 0 -97 61q-24 47 -24 118t24 118q31 61 97 61t97 -61q24 -47 24 -118t-24 -118q-31 -61 -97 -61zM531 38q39 0 58 47q13 33 13 82t-13 83q-19 46 -58 46t-57 -46q-14 -35 -14 -83t14 -82q18 -47 57 -47zM831 -12q-66 0 -97 61q-24 47 -24 118t24 118q31 61 97 61t97 -61
q24 -47 24 -118t-24 -118q-31 -61 -97 -61zM831 38q39 0 58 47q13 33 13 82t-13 83q-19 46 -58 46t-57 -46q-14 -35 -14 -83t14 -82q18 -47 57 -47z" />
    <glyph glyph-name="guilsinglleft" unicode="&#x2039;" horiz-adv-x="278" 
d="M176 450l48 -32l-103 -155l103 -155l-48 -32l-122 187z" />
    <glyph glyph-name="guilsinglright" unicode="&#x203a;" horiz-adv-x="278" 
d="M54 418l48 32l122 -187l-122 -187l-48 32l103 155z" />
    <glyph glyph-name="fraction" unicode="&#x2044;" horiz-adv-x="167" 
d="M-110 -18h-55l441 748h56z" />
    <glyph glyph-name="trademark" unicode="&#x2122;" horiz-adv-x="990" 
d="M207 300v368h-135v44h320v-44h-135v-368h-50zM848 300v368h-2l-149 -368h-30l-149 368h-2v-368h-50v412h85l133 -334l129 334h85v-412h-50z" />
    <glyph glyph-name="minus" unicode="&#xad;" horiz-adv-x="600" 
d="M553 228h-506v50h506v-50z" />
    <glyph glyph-name="minus" unicode="&#x2212;" horiz-adv-x="600" 
d="M553 228h-506v50h506v-50z" />
    <glyph glyph-name="periodcentered" unicode="&#xb7;" horiz-adv-x="278" 
d="M85 313q0 23 16 38.5t38 15.5q23 0 38.5 -15.5t15.5 -38.5q0 -22 -15.5 -38t-38.5 -16q-22 0 -38 16t-16 38z" />
    <glyph glyph-name="periodcentered" unicode="&#x2219;" horiz-adv-x="278" 
d="M85 313q0 23 16 38.5t38 15.5q23 0 38.5 -15.5t15.5 -38.5q0 -22 -15.5 -38t-38.5 -16q-22 0 -38 16t-16 38z" />
    <glyph glyph-name="fi" unicode="&#xf001;" horiz-adv-x="463" 
d="M118 0v430h-105v50h105v160q0 90 114 90q38 0 57 -10v-57q-19 11 -55 11q-56 0 -56 -75v-119h105v-50h-105v-430h-60zM340 0v480h60v-480h-60zM340 584v94h60v-94h-60z" />
    <glyph glyph-name="fl" unicode="&#xf002;" horiz-adv-x="463" 
d="M118 0v430h-105v50h105v160q0 90 114 90q38 0 57 -10v-57q-19 11 -55 11q-56 0 -56 -75v-119h105v-50h-105v-430h-60zM340 0v712h60v-712h-60z" />
    <glyph glyph-name="glyph231" horiz-adv-x="278" 
 />
  </font>
</defs>
</svg>
