<?xml version="1.0" encoding="utf-8"?>
<!-- Generator: Adobe Illustrator 18.1.0, SVG Export Plug-In . SVG Version: 6.00 Build 0)  -->
<!DOCTYPE svg PUBLIC "-//W3C//DTD SVG 1.1//EN" "http://www.w3.org/Graphics/SVG/1.1/DTD/svg11.dtd">
<svg version="1.1" id="Layer_1" xmlns="http://www.w3.org/2000/svg" xmlns:xlink="http://www.w3.org/1999/xlink" x="0px" y="0px"
	 viewBox="0 0 500 500" enable-background="new 0 0 500 500" xml:space="preserve">
<circle cx="250" cy="250" r="249.2"/>
<g>
	<g>
		<defs>
			<rect id="SVGID_1_" x="94.5" y="94.5" width="311" height="311"/>
		</defs>
		<clipPath id="SVGID_2_">
			<use xlink:href="#SVGID_1_"  overflow="visible"/>
		</clipPath>
		<path clip-path="url(#SVGID_2_)" fill="#FFFFFF" d="M250,122.5c41.5,0,46.4,0.1,62.8,0.9c15.1,0.7,23.4,3.2,28.9,5.4
			c7.2,2.8,12.4,6.2,17.9,11.7c5.5,5.5,8.8,10.6,11.7,17.9c2.1,5.5,4.6,13.7,5.4,28.9c0.7,16.4,0.9,21.3,0.9,62.8
			s-0.1,46.4-0.9,62.8c-0.7,15.1-3.2,23.4-5.4,28.9c-2.8,7.2-6.2,12.4-11.7,17.9c-5.5,5.5-10.6,8.8-17.9,11.7
			c-5.5,2.1-13.7,4.6-28.9,5.4c-16.4,0.7-21.3,0.9-62.8,0.9s-46.4-0.1-62.8-0.9c-15.1-0.7-23.4-3.2-28.9-5.4
			c-7.2-2.8-12.4-6.2-17.9-11.7c-5.5-5.5-8.8-10.6-11.7-17.9c-2.1-5.5-4.6-13.7-5.4-28.9c-0.7-16.5-0.8-21.4-0.8-62.9
			s0.1-46.4,0.9-62.8c0.7-15.1,3.2-23.4,5.4-28.9c2.8-7.2,6.2-12.4,11.7-17.9s10.6-8.8,17.9-11.7c5.5-2.1,13.7-4.6,28.9-5.4
			C203.6,122.7,208.5,122.5,250,122.5 M250,94.5c-42.3,0-47.5,0.2-64.1,1c-16.6,0.7-27.9,3.4-37.8,7.2c-10.2,4-18.9,9.3-27.5,17.9
			c-8.7,8.7-14,17.3-17.9,27.5c-3.8,9.9-6.5,21.2-7.2,37.8c-0.7,16.6-1,21.9-1,64.1s0.2,47.5,1,64.1c0.7,16.6,3.4,27.9,7.2,37.8
			c4,10.2,9.3,18.9,17.9,27.5s17.3,14,27.5,17.9c9.9,3.8,21.2,6.5,37.8,7.2s21.9,1,64.1,1s47.5-0.2,64.1-1
			c16.6-0.7,27.9-3.4,37.8-7.2c10.2-4,18.9-9.3,27.5-17.9c8.7-8.7,14-17.3,17.9-27.5c3.8-9.9,6.5-21.2,7.2-37.8
			c0.7-16.6,1-21.9,1-64.1s-0.2-47.5-1-64.1c-0.7-16.6-3.4-27.9-7.2-37.8c-4-10.2-9.3-18.9-17.9-27.5s-17.3-14-27.5-17.9
			c-9.9-3.8-21.2-6.5-37.8-7.2C297.5,94.6,292.2,94.5,250,94.5"/>
	</g>
	<g>
		<defs>
			<rect id="SVGID_3_" x="94.5" y="94.5" width="311" height="311"/>
		</defs>
		<clipPath id="SVGID_4_">
			<use xlink:href="#SVGID_3_"  overflow="visible"/>
		</clipPath>
		<path clip-path="url(#SVGID_4_)" fill="#FFFFFF" d="M250,170.1c-44.1,0-79.9,35.8-79.9,79.9s35.8,79.9,79.9,79.9
			s79.9-35.7,79.9-79.9C329.8,205.9,294.1,170.1,250,170.1 M250,301.8c-28.6,0-51.8-23.2-51.8-51.8s23.2-51.8,51.8-51.8
			s51.8,23.2,51.8,51.8S278.6,301.8,250,301.8"/>
	</g>
	<g>
		<defs>
			<rect id="SVGID_5_" x="94.5" y="94.5" width="311" height="311"/>
		</defs>
		<clipPath id="SVGID_6_">
			<use xlink:href="#SVGID_5_"  overflow="visible"/>
		</clipPath>
		<path clip-path="url(#SVGID_6_)" fill="#FFFFFF" d="M351.6,167c0,10.3-8.4,18.7-18.7,18.7c-10.3,0-18.7-8.4-18.7-18.7
			s8.4-18.7,18.7-18.7C343.3,148.3,351.6,156.7,351.6,167"/>
	</g>
</g>
</svg>
