<?xml version="1.0" encoding="utf-8"?>
<!-- Generator: Adobe Illustrator 18.0.0, SVG Export Plug-In . SVG Version: 6.00 Build 0)  -->
<!DOCTYPE svg PUBLIC "-//W3C//DTD SVG 1.1//EN" "http://www.w3.org/Graphics/SVG/1.1/DTD/svg11.dtd">
<svg version="1.1"
	 id="svg2" xmlns:dc="http://purl.org/dc/elements/1.1/" xmlns:cc="http://creativecommons.org/ns#" xmlns:rdf="http://www.w3.org/1999/02/22-rdf-syntax-ns#" xmlns:svg="http://www.w3.org/2000/svg" xmlns:sodipodi="http://sodipodi.sourceforge.net/DTD/sodipodi-0.dtd" xmlns:inkscape="http://www.inkscape.org/namespaces/inkscape" inkscape:version="0.91 r13725" sodipodi:docname="tumblr.svg"
	 xmlns="http://www.w3.org/2000/svg" xmlns:xlink="http://www.w3.org/1999/xlink" x="0px" y="0px" viewBox="0 0 1792 1792"
	 enable-background="new 0 0 1792 1792" xml:space="preserve">
<sodipodi:namedview  inkscape:cy="896.00001" inkscape:cx="-239.18643" inkscape:zoom="0.13169643" showgrid="false" guidetolerance="10" gridtolerance="10" objecttolerance="10" bordercolor="#666666" pagecolor="#ffffff" borderopacity="1" id="namedview6" inkscape:current-layer="svg2" inkscape:window-maximized="1" inkscape:window-y="-8" inkscape:window-x="1272" inkscape:window-height="962" inkscape:window-width="1280" inkscape:pageopacity="0" inkscape:pageshadow="2">
	</sodipodi:namedview>
<g>
	<path d="M896.3,90.5C896.3,90.5,896.3,90.5,896.3,90.5c-429.5,0-777.6,348.2-777.6,777.6c0,0,0,0,0,0
		c0,429.5,348.2,777.6,777.6,777.6c0,0,0,0,0,0c429.5,0,777.6-348.2,777.6-777.6c0,0,0,0,0,0C1673.9,438.7,1325.8,90.5,896.3,90.5z
		 M1315.2,1047.7c0,134-108.6,242.5-242.5,242.5H714.3c-134,0-242.5-108.6-242.5-242.5V697.8c0-134,108.6-242.5,242.5-242.5h358.3
		c134,0,242.5,108.6,242.5,242.5V1047.7z"/>
	<path d="M1073.5,536.1H713.3c-88.2,0-159.6,71.5-159.6,159.6v358.8c0,88.2,71.5,159.6,159.6,159.6h360.2
		c88.2,0,159.6-71.5,159.6-159.6V695.8C1233.1,607.6,1161.6,536.1,1073.5,536.1z M893.3,1089.6c-119.4,0-216.1-96.8-216.1-216.1
		S774,657.3,893.3,657.3s216.1,96.8,216.1,216.1S1012.7,1089.6,893.3,1089.6z M1115,705.6c-29,0-52.6-23.5-52.6-52.6
		s23.5-52.6,52.6-52.6s52.6,23.5,52.6,52.6S1144,705.6,1115,705.6z"/>
	<circle cx="893.3" cy="873.5" r="140"/>
</g>
</svg>
