<?xml version="1.0" encoding="UTF-8" standalone="no"?>
<svg
   xmlns:dc="http://purl.org/dc/elements/1.1/"
   xmlns:cc="http://creativecommons.org/ns#"
   xmlns:rdf="http://www.w3.org/1999/02/22-rdf-syntax-ns#"
   xmlns:svg="http://www.w3.org/2000/svg"
   xmlns="http://www.w3.org/2000/svg"
   xmlns:sodipodi="http://sodipodi.sourceforge.net/DTD/sodipodi-0.dtd"
   xmlns:inkscape="http://www.inkscape.org/namespaces/inkscape"
   width="1792"
   height="1792"
   viewBox="0 0 1792 1792"
   id="svg2"
   version="1.1"
   inkscape:version="0.91 r13725"
   sodipodi:docname="vimeo.svg">
  <metadata
     id="metadata10">
    <rdf:RDF>
      <cc:Work
         rdf:about="">
        <dc:format>image/svg+xml</dc:format>
        <dc:type
           rdf:resource="http://purl.org/dc/dcmitype/StillImage" />
      </cc:Work>
    </rdf:RDF>
  </metadata>
  <defs
     id="defs8">
    <pattern
       y="0"
       x="0"
       height="6"
       width="6"
       patternUnits="userSpaceOnUse"
       id="EMFhbasepattern" />
    <pattern
       y="0"
       x="0"
       height="6"
       width="6"
       patternUnits="userSpaceOnUse"
       id="EMFhbasepattern-6" />
  </defs>
  <sodipodi:namedview
     pagecolor="#ffffff"
     bordercolor="#666666"
     borderopacity="1"
     objecttolerance="10"
     gridtolerance="10"
     guidetolerance="10"
     inkscape:pageopacity="0"
     inkscape:pageshadow="2"
     inkscape:window-width="1280"
     inkscape:window-height="778"
     id="namedview6"
     showgrid="false"
     inkscape:zoom="0.13169643"
     inkscape:cx="-239.18643"
     inkscape:cy="805.68054"
     inkscape:window-x="-8"
     inkscape:window-y="102"
     inkscape:window-maximized="1"
     inkscape:current-layer="svg2" />
  <path
     style="opacity:1;fill:#000000;fill-opacity:1;fill-rule:nonzero;stroke:none;stroke-width:1;stroke-linecap:round;stroke-miterlimit:4;stroke-dasharray:none;stroke-opacity:1"
     d="M 904.7793 124.78711 A 777.61902 777.61902 0 0 0 127.16016 902.40625 A 777.61902 777.61902 0 0 0 904.7793 1680.0254 A 777.61902 777.61902 0 0 0 1682.3984 902.40625 A 777.61902 777.61902 0 0 0 904.7793 124.78711 z M 1197.0469 533.54883 C 1200.9819 533.52958 1204.9565 533.58453 1208.9727 533.71484 C 1304.1283 536.74769 1348.8643 598.542 1343.1777 719.09766 C 1339.3867 808.56664 1276.4549 931.96599 1154.3828 1089.2949 C 1028.1406 1252.6895 921.61212 1334.3867 834.79688 1334.3867 C 780.96384 1334.3867 735.47073 1284.5349 698.31836 1184.8301 C 681.63771 1124.1731 656.61717 1032.8084 623.25586 910.73633 C 595.96024 811.41059 566.19861 761.74805 533.97461 761.74805 C 527.1507 761.74805 503.07839 776.1528 461.75586 804.96484 L 417.96875 749.23633 C 427.06729 741.2751 447.53987 722.98381 479.38477 694.36133 C 511.22965 665.73883 535.87167 643.84587 553.31055 628.68164 C 612.45106 576.36503 658.13343 548.69105 690.35742 545.6582 C 726.37248 542.24625 755.37319 552.76642 777.36133 577.21875 C 799.34947 601.67108 814.70244 640.24374 823.42188 692.93945 C 840.10253 801.74283 852.61475 872.44573 860.95508 905.04883 C 881.8059 999.44619 904.55148 1046.6465 929.19336 1046.6465 C 948.52775 1046.6465 977.7197 1016.1279 1016.7676 955.0918 C 1055.0572 894.05576 1075.7171 847.42517 1078.75 815.20117 C 1083.6783 762.50546 1063.0184 736.1582 1016.7676 736.1582 C 995.15857 736.1582 972.22176 741.08661 947.95898 750.94336 C 992.02999 606.61065 1075.0596 534.14563 1197.0469 533.54883 z "
     id="path3335" />
</svg>
