<?xml version="1.0" encoding="utf-8"?>
<!-- Generator: Adobe Illustrator 19.2.1, SVG Export Plug-In . SVG Version: 6.00 Build 0)  -->
<!DOCTYPE svg PUBLIC "-//W3C//DTD SVG 1.1//EN" "http://www.w3.org/Graphics/SVG/1.1/DTD/svg11.dtd">
<svg version="1.1" id="Layer_1" xmlns="http://www.w3.org/2000/svg" xmlns:xlink="http://www.w3.org/1999/xlink" x="0px" y="0px"
	 viewBox="0 0 273.2 273.2" style="enable-background:new 0 0 273.2 273.2;" xml:space="preserve">
<style type="text/css">
	.st0{fill:#FFFFFF;}
	.st1{stroke:#000000;stroke-width:1.2;stroke-miterlimit:10;}
	.st2{fill:none;stroke:#FFFFFF;stroke-width:1.2;stroke-miterlimit:10;}
	.st3{fill:none;stroke:#000000;stroke-width:1.2;stroke-miterlimit:10;}
	.st4{fill:none;stroke:#FFFFFF;stroke-width:0.5;stroke-miterlimit:10;}
	.st5{fill:#FFFFFF;stroke:#000000;stroke-width:1.2;stroke-miterlimit:10;}
	.st6{fill:none;stroke:#000000;stroke-width:0.5;stroke-miterlimit:10;}
</style>
<g>
	<g>
		<g id="XMLID_2_">
			<g>
				<path d="M234.1,209.1l-1.1-0.6l-5-2.7l-4.8-2.6l-5-2.7l-5-2.7l-4.4-2.4l-4.7-2.6l-5-2.7l-4.6-2.5l-0.2-0.3l-2.8-3.9l-3.1-4.4
					l-3.2-4.5l-3.2-4.5l-2.8-3.9l-3-4.2l-3.2-4.5l-3.2-4.5l-2.8-3.9l-3.3-4.6l-0.3-0.4h-0.5v-2.2c1.2,0,2.4,0,3.5-0.1
					c3.1-0.1,5.9-0.5,8.6-1c4.4-0.8,8.1-2.1,11.3-3.6c7.2-3.5,11.4-8.5,13.9-13.4c2-3.9,2.9-7.6,3.3-10.4c0.4-2.7,0.3-4.4,0.3-4.4
					c0-1,0-2-0.1-3c-0.2-2.3-0.5-4.4-1-6.3c-0.4-1.7-1-3.3-1.7-4.8c-0.7-1.6-1.6-3.1-2.5-4.5l-10.8,10.4l10-10.4
					c-0.9-1.3-1.9-2.5-3-3.6l0.4-0.4c-1.3-1.2-2.6-2.4-4-3.4c-1.3-0.9-2.7-1.7-4.1-2.5c-1.7-0.9-3.5-1.7-5.3-2.3
					c-1.9-0.7-3.8-1.3-5.7-1.8c-2.2-0.6-4.3-1-6.3-1.3c-2.2-0.3-4.2-0.5-6-0.7c-4.1-0.3-6.8-0.1-6.8-0.1h-0.3h-7.6h-7.6h-6.7h-8.7
					h-7.6H111h-7.6h-7.6h-6.7h-8.7h-3.7h-1.1v-0.9l0,0l-4-3.6L68,66.5l-4.6-4.1l-4.1-3.6l-3.9-3.5l-1.8,1.7v7.3V72v8.7v6.6v7.5v7.5
					v7.2v6.6v7.5v7.5v7.5v6.6v7.5v7.5v7.2v6.6v7.5v7.6v7.5v6.6v5.6h-0.1V53.7h109.1c23,0,39.2,8.1,39.2,8.1
					c27.8,14.4,25.2,44.6,25.2,44.6c0,37.9-31.1,48.7-31.1,48.7L234.1,209.1z"/>
				<path d="M177.5,123.9l-6.4,6.2l-7.9,11.6v2.2h-6.6h-7.8h-6.8h-7.5h-7.8h-7.8h-6.8h-8.9h-7.8h-7.7h-7.8h-3.7h-0.4l0-5l0-7.5
					l0-7.5l0-6.6l0-7.5l0-7.5l0-7.5l0-6.6l0-7.2l0-6.6h1.1l2,1.6l4.7,3.8l3.6,2.9l4.1,3.4l4.1,3.4l3.9,3.2h0.2h7.6h8.7h6.7h7.6h7.6
					h7.3h6.7h7.6h7.6h0.3c2.5,0,4.5,0.5,6.2,1.2c1.5,0.7,2.8,1.6,3.8,2.7c0.5,0.5,0.9,1.1,1.3,1.6c-2.2-2.9-5.7-5.2-11.2-5.2H97.6
					v33.8h70.3c0,0,4.9,0,8.9-3.5L177.5,123.9z"/>
				<polygon points="95.5,160 98.9,162.8 98.5,162.8 98.5,209.2 97.7,209.2 95.4,206.9 91.5,203.1 87.7,199.3 84.3,195.9 
					80.7,192.3 76.8,188.5 75.9,187.5 75.9,181.9 75.8,175.2 75.8,167.8 75.8,160.2 75.8,152.7 75.8,146.1 75.8,143.9 76.2,143.9 
					78.2,145.6 82.4,149.1 86.5,152.5 90.7,156 				"/>
			</g>
			<g>
				<path class="st3" d="M97.7,209.2h0.8v-46.4h0.4h0.5h7.8h7.8h7.5h6.8h7.8h7.8h6l0,0l30.6,46.4h0.4h5.3h7.4h6.8h7.7h7.7h7.5h7.8h2
					l-0.1-0.2l-38.2-53.9c0,0,31.1-10.8,31.1-48.7c0,0,2.6-30.2-25.2-44.6c0,0-16.2-8.1-39.2-8.1H53.4v155.5h0.1"/>
				<path class="st3" d="M181.7,113.5c0.2-1.1,0.2-2.3,0.2-3.6c0,0,0-1.2-0.3-2.9c-0.3-1.6-0.8-3.8-1.8-5.9
					c-0.1-0.2-0.2-0.4-0.3-0.6c-0.4-0.8-0.8-1.5-1.4-2.2"/>
				<path class="st3" d="M180.9,116.8c0.3-1,0.6-2.1,0.7-3.3"/>
				<path class="st3" d="M178.2,98.2c-2.2-2.9-5.7-5.2-11.2-5.2H97.6v33.8h70.3c0,0,4.9,0,8.9-3.5c1.6-1.4,3-3.4,4-6.1
					c0-0.1,0.1-0.2,0.1-0.3"/>
				<line class="st3" x1="75.7" y1="102.2" x2="75.7" y2="94.6"/>
				<line class="st3" x1="53.6" y1="116.2" x2="53.6" y2="123.8"/>
				<polyline class="st3" points="53.6,109.6 53.6,116.2 75.7,94.6 75.7,88 				"/>
				<polyline class="st3" points="53.6,102.4 53.6,109.6 75.7,88 75.7,80.8 				"/>
				<line class="st3" x1="75.7" y1="117.2" x2="75.7" y2="109.7"/>
				<line class="st3" x1="53.6" y1="131.3" x2="53.6" y2="138.8"/>
				<polyline class="st3" points="75.7,123.8 75.7,117.2 53.6,138.8 53.6,145.4 				"/>
				<polyline class="st3" points="53.6,94.8 53.6,102.4 75.7,80.8 75.7,74.2 75.7,73.3 75.6,73.3 				"/>
				<polygon class="st3" points="75.7,102.2 53.6,123.8 53.6,131.3 75.7,109.7 				"/>
				<polyline class="st3" points="75.8,131.3 75.7,123.8 53.6,145.4 53.6,153 				"/>
				<line class="st3" x1="63.4" y1="62.4" x2="59.3" y2="58.8"/>
				<line class="st3" x1="53.6" y1="64.4" x2="53.6" y2="72"/>
				<polyline class="st3" points="53.6,57.1 53.6,64.4 59.3,58.8 55.3,55.3 				"/>
				<line class="st3" x1="53.6" y1="57.1" x2="55.3" y2="55.3"/>
				<polyline class="st3" points="68,66.5 63.4,62.4 53.6,72 53.6,80.6 				"/>
				<polyline class="st3" points="53.6,87.3 53.6,94.8 75.6,73.3 71.6,69.7 				"/>
				<polygon class="st3" points="68,66.5 53.6,80.6 53.6,87.3 71.6,69.7 				"/>
				<line class="st3" x1="91.5" y1="203.1" x2="87.7" y2="199.3"/>
				<line class="st3" x1="77.5" y1="209.2" x2="85.2" y2="209.2"/>
				<line class="st3" x1="84.3" y1="195.9" x2="80.7" y2="192.3"/>
				<line class="st3" x1="63.3" y1="209.2" x2="70.6" y2="209.2"/>
				<polyline class="st3" points="55.5,209.2 63.3,209.2 80.7,192.3 76.8,188.5 				"/>
				<polygon class="st3" points="84.3,195.9 70.6,209.2 77.5,209.2 87.7,199.3 				"/>
				<polyline class="st3" points="93,209.2 97.7,209.2 95.4,206.9 				"/>
				<polyline class="st3" points="75.8,138.9 75.8,131.3 53.6,153 53.6,160.5 				"/>
				<polygon class="st3" points="91.5,203.1 85.2,209.2 93,209.2 95.4,206.9 				"/>
				<polyline class="st3" points="53.6,203.6 53.6,209.2 55.5,209.2 76.8,188.5 75.9,187.5 75.9,181.9 				"/>
				<line class="st3" x1="75.8" y1="152.7" x2="75.8" y2="146.1"/>
				<line class="st3" x1="53.6" y1="167.7" x2="53.6" y2="174.4"/>
				<polygon class="st3" points="75.8,138.9 53.6,160.5 53.6,167.7 75.8,146.1 75.8,143.9 				"/>
				<polyline class="st3" points="75.8,160.2 75.8,152.7 53.6,174.4 53.6,181.9 				"/>
				<polyline class="st3" points="75.8,167.8 75.8,160.2 53.6,181.9 53.6,189.5 				"/>
				<polyline class="st3" points="75.8,175.2 75.8,167.8 53.6,189.5 53.6,197 				"/>
				<polygon class="st3" points="75.8,175.2 53.6,197 53.6,203.6 75.9,181.9 				"/>
				<line class="st3" x1="141.9" y1="143.9" x2="134.5" y2="143.9"/>
				<line class="st3" x1="114.9" y1="162.8" x2="122.4" y2="162.8"/>
				<polyline class="st3" points="148.7,143.9 141.9,143.9 122.4,162.8 122.4,162.8 129.2,162.8 				"/>
				<line class="st3" x1="137" y1="162.8" x2="144.7" y2="162.8"/>
				<polyline class="st3" points="163.9,144.3 163.6,143.9 163.1,143.9 156.5,143.9 				"/>
				<polygon class="st3" points="148.7,143.9 129.3,162.8 129.2,162.8 137,162.8 137,162.8 156.5,143.9 				"/>
				<polyline class="st3" points="167.2,148.9 163.9,144.3 144.8,162.8 144.7,162.8 150.8,162.8 151.3,162.8 151.9,163.8 				"/>
				<line class="st3" x1="173.1" y1="157.3" x2="170" y2="152.8"/>
				<line class="st3" x1="154.6" y1="167.8" x2="157.6" y2="172.4"/>
				<polygon class="st3" points="167.2,148.9 151.9,163.8 154.6,167.8 170,152.8 				"/>
				<line class="st3" x1="118.9" y1="143.9" x2="112.1" y2="143.9"/>
				<polyline class="st3" points="95.5,160 98.9,162.8 99,162.8 99.4,162.8 				"/>
				<line class="st3" x1="87.7" y1="143.9" x2="79.9" y2="143.9"/>
				<line class="st3" x1="78.2" y1="145.6" x2="82.4" y2="149.1"/>
				<polyline class="st3" points="95.4,143.9 87.7,143.9 82.4,149.1 86.5,152.5 				"/>
				<polyline class="st3" points="107.2,162.8 114.9,162.8 115,162.8 134.5,143.9 126.7,143.9 				"/>
				<polygon class="st3" points="76.2,143.9 78.2,145.6 79.9,143.9 				"/>
				<polyline class="st3" points="103.2,143.9 95.4,143.9 86.5,152.5 90.7,156 				"/>
				<polygon class="st3" points="118.9,143.9 99.5,162.8 99.4,162.8 107.2,162.8 107.2,162.8 126.7,143.9 				"/>
				<polyline class="st3" points="176.3,161.8 173.1,157.3 157.6,172.4 160.6,177 				"/>
				<polygon class="st3" points="103.2,143.9 90.7,156 95.5,160 112.1,143.9 				"/>
				<line class="st3" x1="194.3" y1="187.2" x2="191.6" y2="183.3"/>
				<line class="st3" x1="175.3" y1="199.2" x2="177.9" y2="203.2"/>
				<line class="st3" x1="228" y1="205.8" x2="223.2" y2="203.1"/>
				<line class="st3" x1="216.9" y1="209.3" x2="224.4" y2="209.3"/>
				<polyline class="st3" points="209.1,209.3 216.9,209.3 216.9,209.2 223.2,203.1 218.2,200.4 				"/>
				<polyline class="st3" points="201.4,209.3 209.1,209.3 209.2,209.2 218.2,200.4 213.3,197.7 				"/>
				<polyline class="st3" points="232.2,209.3 234.4,209.3 234.1,209.1 233,208.5 				"/>
				<polyline class="st3" points="194.6,209.3 201.4,209.3 201.4,209.2 213.3,197.7 208.9,195.3 				"/>
				<polygon class="st3" points="233,208.5 228,205.8 224.4,209.2 224.4,209.3 232.2,209.3 232.2,209.2 				"/>
				<polyline class="st3" points="172.3,194.6 175.3,199.2 191.6,183.3 188.4,178.9 				"/>
				<line class="st3" x1="185.3" y1="174.4" x2="182.1" y2="169.9"/>
				<line class="st3" x1="166.2" y1="185.4" x2="169.2" y2="190"/>
				<polygon class="st3" points="185.3,174.4 169.2,190 172.3,194.6 188.4,178.9 				"/>
				<polyline class="st3" points="163.5,181.4 166.2,185.4 182.1,169.9 179.3,166 				"/>
				<line class="st3" x1="204.2" y1="192.8" x2="199.2" y2="190"/>
				<polyline class="st3" points="181,207.8 181.9,209.2 181.9,209.3 187.2,209.3 				"/>
				<polygon class="st3" points="176.3,161.8 160.6,177 163.5,181.4 179.3,166 				"/>
				<polygon class="st3" points="204.2,192.8 187.2,209.2 187.2,209.3 194.6,209.3 194.6,209.2 208.9,195.3 				"/>
				<polygon class="st3" points="199.2,190 194.6,187.5 194.3,187.2 177.9,203.2 181,207.8 				"/>
				<line class="st3" x1="141.5" y1="74.2" x2="134.9" y2="74.2"/>
				<line class="st3" x1="115.7" y1="92.6" x2="122.3" y2="92.6"/>
				<polyline class="st3" points="107,92.6 115.7,92.6 134.9,74.2 126.2,74.2 				"/>
				<polyline class="st3" points="99.3,92.6 107,92.6 126.2,74.2 118.5,74.2 				"/>
				<line class="st3" x1="137.5" y1="92.6" x2="144.8" y2="92.6"/>
				<path class="st3" d="M163.8,74.4c-4.1-0.3-6.8-0.1-6.8-0.1h-0.3"/>
				<polyline class="st3" points="149.1,74.2 141.5,74.2 122.3,92.6 129.9,92.6 				"/>
				<polygon class="st3" points="149.1,74.2 129.9,92.6 137.5,92.6 156.7,74.2 				"/>
				<polyline class="st3" points="95.2,89.4 99.1,92.6 99.3,92.6 118.5,74.2 111,74.2 				"/>
				<polyline class="st3" points="80.5,74.2 76.7,74.2 78.8,75.9 				"/>
				<polyline class="st3" points="89.2,74.2 80.5,74.2 78.8,75.9 83.4,79.7 				"/>
				<polyline class="st3" points="91.1,86 95.2,89.4 111,74.2 103.4,74.2 				"/>
				<path class="st3" d="M169.8,75c-2.2-0.3-4.2-0.5-6-0.7l-19,18.2h6.7"/>
				<polyline class="st3" points="95.8,74.2 89.2,74.2 83.4,79.7 87,82.7 				"/>
				<polygon class="st3" points="95.8,74.2 87,82.7 91.1,86 103.4,74.2 				"/>
				<path class="st3" d="M166.6,141.7c3.1-0.1,5.9-0.5,8.6-1"/>
				<path class="st3" d="M203.6,113.3c0.4-2.7,0.3-4.4,0.3-4.4c0-1,0-2-0.1-3"/>
				<path class="st3" d="M171.1,130.1l-7.9,11.6c1.2,0,2.4,0,3.5-0.1l37.1-35.8c-0.2-2.3-0.5-4.4-1-6.3"/>
				<path class="st3" d="M186.4,137.1c7.2-3.5,11.4-8.5,13.9-13.4"/>
				<path class="st3" d="M182.4,112.7l-0.8,0.7c0,0,0,0,0,0.1c-0.2,0.7-0.5,2.4-0.7,3.3c0,0,0,0,0,0c0,0.1-0.1,0.2-0.1,0.3"/>
				<path class="st3" d="M171.1,130.1l6.4-6.2l25.3-24.3c-0.4-1.7-1-3.3-1.7-4.8"/>
				<path class="st3" d="M200.3,123.7c2-3.9,2.9-7.6,3.3-10.4l-28.4,27.4c4.4-0.8,8.1-2.1,11.3-3.6L200.3,123.7z"/>
				<path class="st3" d="M181.8,78.1c-1.9-0.7-3.8-1.3-5.7-1.8"/>
				<line class="st3" x1="159" y1="92.6" x2="166.6" y2="92.6"/>
				<path class="st3" d="M187,80.4c-1.7-0.9-3.5-1.7-5.3-2.3l-15.2,14.5h0.3c2.5,0,4.5,0.5,6.2,1.2"/>
				<path class="st3" d="M182.4,112.7l18.6-17.9c-0.7-1.6-1.6-3.1-2.5-4.5l-10.8,10.4l-5.9,5.7"/>
				<path class="st3" d="M191.1,82.9c-1.3-0.9-2.7-1.7-4.1-2.5l-14,13.4c1.5,0.7,2.8,1.6,3.8,2.7"/>
				<path class="st3" d="M169.8,75l-18.3,17.6h7.6l17-16.3C173.9,75.7,171.8,75.3,169.8,75z"/>
				<path class="st3" d="M181.8,106.9l5.9-6.2l10-10.4c-0.9-1.3-1.9-2.5-3-3.6c-0.1-0.1-0.3-0.3-0.4-0.4l-14.7,14.2l-0.1,0.1
					l-0.6,0.6"/>
				<path class="st3" d="M191.1,82.9l-14.2,13.7c0.5,0.5,0.9,1.1,1.3,1.6c0,0,0,0,0,0c0.5,0.8,0.9,1.5,1.3,2.3
					c0.1,0.2,0.2,0.4,0.3,0.6l0.1-0.1l14.8-14.3l0.4-0.4C193.9,85,192.5,83.9,191.1,82.9z"/>
			</g>
		</g>
	</g>
</g>
</svg>
