<?xml version="1.0" encoding="UTF-8" standalone="no"?>
<!-- Generator: Adobe Illustrator 19.2.1, SVG Export Plug-In . SVG Version: 6.00 Build 0)  -->

<svg
   xmlns:dc="http://purl.org/dc/elements/1.1/"
   xmlns:cc="http://creativecommons.org/ns#"
   xmlns:rdf="http://www.w3.org/1999/02/22-rdf-syntax-ns#"
   xmlns:svg="http://www.w3.org/2000/svg"
   xmlns="http://www.w3.org/2000/svg"
   xmlns:sodipodi="http://sodipodi.sourceforge.net/DTD/sodipodi-0.dtd"
   xmlns:inkscape="http://www.inkscape.org/namespaces/inkscape"
   version="1.1"
   id="Layer_1"
   x="0px"
   y="0px"
   viewBox="0 0 472 130.1"
   xml:space="preserve"
   inkscape:version="0.91 r13725"
   sodipodi:docname="rideau-logo-shown.svg"
   width="472"
   height="130.10001"><metadata
     id="metadata41"><rdf:RDF><cc:Work
         rdf:about=""><dc:format>image/svg+xml</dc:format><dc:type
           rdf:resource="http://purl.org/dc/dcmitype/StillImage" /><dc:title></dc:title></cc:Work></rdf:RDF></metadata><defs
     id="defs39" /><sodipodi:namedview
     pagecolor="#ffffff"
     bordercolor="#666666"
     borderopacity="1"
     objecttolerance="10"
     gridtolerance="10"
     guidetolerance="10"
     inkscape:pageopacity="0"
     inkscape:pageshadow="2"
     inkscape:window-width="1280"
     inkscape:window-height="738"
     id="namedview37"
     showgrid="false"
     inkscape:zoom="1.3474576"
     inkscape:cx="191.27725"
     inkscape:cy="118.12869"
     inkscape:window-x="-8"
     inkscape:window-y="-8"
     inkscape:window-maximized="1"
     inkscape:current-layer="g5" /><style
     type="text/css"
     id="style3">
	.st0{fill:#FFFFFF;}
	.st1{stroke:#000000;stroke-width:1.2;stroke-miterlimit:10;}
	.st2{fill:none;stroke:#FFFFFF;stroke-width:1.2;stroke-miterlimit:10;}
	.st3{fill:#F7F7F7;stroke:#000000;stroke-width:1.2;stroke-miterlimit:10;}
	.st4{fill:none;stroke:#000000;stroke-width:1.2;stroke-miterlimit:10;}
	.st5{fill:none;stroke:#FFFFFF;stroke-width:0.5;stroke-miterlimit:10;}
	.st6{fill:#FFFFFF;stroke:#000000;stroke-width:1.2;stroke-miterlimit:10;}
	.st7{fill:none;stroke:#000000;stroke-width:0.5;stroke-miterlimit:10;}
</style><g
     id="g5"
     transform="translate(0,-55.999992)"><g
       id="g7"
       transform="matrix(1.2993854,0,0,1.2993854,-73.133962,-2.531425)" /><g
       id="g3375"
       transform="matrix(1.2993854,0,0,1.2993854,-73.133962,-2.531425)"><path
         id="path9"
         d="m 106.1,104.7 -14.8,-21 -23,0 0,20.9 -6.7,0 0,-51.6 32.2,0 c 9.9,0 19.7,3.9 19.7,15.3 0,8.4 -6.2,13.5 -14,14.9 l 15.1,21.4 -8.5,0 z m -12.4,-44.9 -25.4,0 0,17.2 25.4,0 c 6,0 12.9,-1.4 12.9,-8.7 0.1,-7.3 -7,-8.5 -12.9,-8.5 z"
         inkscape:connector-curvature="0" /><path
         id="path11"
         d="m 131.4,104.7 0,-51.7 6.8,0 0,51.7 -6.8,0 z"
         inkscape:connector-curvature="0" /><path
         id="path13"
         d="m 186.4,104.7 -29.1,0 0,-51.7 29.1,0 c 6.6,0 11.1,0.8 16.2,5.2 6,5.3 9.1,13.1 9.1,21 0.1,15.3 -9.8,25.5 -25.3,25.5 z m 12.8,-40.5 c -3.8,-3.8 -7.3,-4.4 -12.5,-4.4 l -22.5,0 0,38.1 22.3,0 c 11.6,0 18.6,-7.2 18.6,-18.7 0,-5.6 -2,-11 -5.9,-15 z"
         inkscape:connector-curvature="0" /><path
         id="path15"
         d="m 227.4,104.7 0,-51.7 45.5,0 0,6.8 -38.8,0 0,15 32.9,0 0,6.8 -32.9,0 0,16.1 39.9,0 0,6.9 -46.6,0 z"
         inkscape:connector-curvature="0" /><path
         id="path17"
         d="m 346.2,104.7 -7.2,-13 -35.8,0 -7.3,12.9 -7.1,0 29.5,-51.6 6.1,0 29,51.7 -7.2,0 z m -24.9,-44.6 -14.1,24.8 28.1,0 -14,-24.8 z"
         inkscape:connector-curvature="0" /><path
         id="path19"
         d="m 388.6,106.1 c -14.4,0 -25.1,-5.8 -25.1,-21.5 l 0,-31.6 6.8,0 0,31.6 c 0,11.8 8.1,14.7 18.5,14.7 10.2,0 18.1,-3.2 18.1,-14.7 l 0,-31.6 6.7,0 0,31.6 c 0,15.5 -10.7,21.5 -25,21.5 z"
         inkscape:connector-curvature="0" /><g
         id="g21"><path
           id="path23"
           d="m 173.1,137.1 -8.1,-9.2 0,9.2 -1.5,0 0,-11.5 1.5,0 8.1,9.2 0,-9.2 1.5,0 0,11.5 -1.5,0 z"
           inkscape:connector-curvature="0" /><path
           id="path25"
           d="m 185,137.1 0,-11.5 10.1,0 0,1.5 -8.6,0 0,3.3 4.9,0 0,1.5 -4.9,0 0,3.6 8.9,0 0,1.5 -10.4,0 z"
           inkscape:connector-curvature="0" /><path
           id="path27"
           d="m 215.9,137.1 -1.5,0 -3,-9 -3.1,9 -1.5,0 -4.4,-11.5 1.6,0 3.5,9.1 3.1,-9.1 1.5,0 3,9.1 3.4,-9.1 1.6,0 -4.2,11.5 z"
           inkscape:connector-curvature="0" /><path
           id="path29"
           d="m 244.9,131.4 0,5.7 -1.5,0 0,-5.7 -5.2,-5.8 2,0 4,4.4 4,-4.4 2,0 -5.3,5.8 z"
           inkscape:connector-curvature="0" /><path
           id="path31"
           d="m 263.8,137.6 c -3.7,0 -7,-2.3 -7,-6.2 0,-3.8 3.4,-6.1 7,-6.1 3.6,0 7.2,2.3 7.2,6.3 -0.1,3.9 -3.6,6 -7.2,6 z m -0.1,-10.8 c -2.7,0 -5.5,1.6 -5.5,4.6 0,3.1 2.8,4.7 5.6,4.7 2.7,0 5.5,-1.5 5.5,-4.5 0.1,-3.2 -2.8,-4.8 -5.6,-4.8 z"
           inkscape:connector-curvature="0" /><path
           id="path33"
           d="m 289.9,137.1 -3.3,-4.7 -5.1,0 0,4.7 -1.5,0 0,-11.5 7.1,0 c 2.2,0 4.4,0.9 4.4,3.4 0,1.9 -1.4,3 -3.1,3.3 l 3.4,4.8 -1.9,0 z m -2.7,-9.9 -5.7,0 0,3.8 5.7,0 c 1.3,0 2.9,-0.3 2.9,-1.9 -0.1,-1.7 -1.6,-1.9 -2.9,-1.9 z"
           inkscape:connector-curvature="0" /><path
           id="path35"
           d="m 309.7,137.1 -4.5,-6.2 -3,2.8 0,3.4 -1.5,0 0,-11.5 1.5,0 0,6.1 6.6,-6.1 2.2,0 -4.6,4.3 5.3,7.2 -2,0 z"
           inkscape:connector-curvature="0" /></g></g></g></svg>