<?xml version="1.0" encoding="utf-8"?>
<!-- Generator: Adobe Illustrator 18.0.0, SVG Export Plug-In . SVG Version: 6.00 Build 0)  -->
<!DOCTYPE svg PUBLIC "-//W3C//DTD SVG 1.1//EN" "http://www.w3.org/Graphics/SVG/1.1/DTD/svg11.dtd">
<svg version="1.1" id="Layer_1" xmlns="http://www.w3.org/2000/svg" xmlns:xlink="http://www.w3.org/1999/xlink" x="0px" y="0px"
	 viewBox="0 0 228.1 56.1" enable-background="new 0 0 228.1 56.1" xml:space="preserve">
<g id="XMLID_1_">
	<g>
		<path fill="#010101" d="M215.7,16.9v18c0,3.1-0.2,5.4-2.3,7.9l-1.9-1.9c0.8-0.9,1.3-2.1,1.3-3.7V19.8l-3.1-2.9H215.7z"/>
		<path fill="#010101" d="M209.1,38.5l2.4,2.4c-3.1,3.6-10.7,3.2-10.7,3.2c-11.9-0.2-11.9-6.9-11.9-6.9V19.8l-2.9-2.9h6.1v18
			c0,6.1,4,6.6,9.3,6.6c1.9,0,4.3-0.4,5.9-1.3C208.1,39.8,208.7,39.3,209.1,38.5z"/>
		<polygon fill="#010101" points="165.8,16.9 180.9,46.5 173.9,46.5 175.9,43.4 172.6,37.3 172.7,37.3 172.6,37.2 163.4,19.8 
			159.7,19.8 157.6,16.9 		"/>
		<polygon fill="#010101" points="172.6,37.2 172.6,37.3 150.8,37.3 159.7,19.8 159.7,19.8 161.8,22.7 155.9,34.4 167.7,34.4 		"/>
		<polygon fill="#010101" points="150.8,37.3 152.8,40.3 149.7,46.5 147.7,43.4 		"/>
		<polygon fill="#010101" points="137.2,40.6 137.2,46.5 134.1,43.4 112.6,43.4 112.6,31.1 115.8,34.2 115.8,40.6 		"/>
		<polygon fill="#010101" points="136.9,16.9 136.9,22.8 134.1,19.8 112.7,19.8 109.7,16.9 		"/>
		<polygon fill="#010101" points="133,28.3 133,34.2 129.9,31.1 112.6,31.1 112.6,19.8 112.7,19.8 115.8,22.8 115.8,28.3 		"/>
		<path fill="#010101" d="M102,31.5c0,4.6-1.5,8.4-4.3,11l-2.4-2c4-3.6,3.2-9.4,3.2-9.4c0.6-11.3-12-11.2-12-11.2H72.9l-3.2-2.9
			h16.7C95.7,16.9,102,22,102,31.5z"/>
		<path fill="#010101" d="M93,38.5l2.3,2c-1.8,1.6-4.6,2.9-8.8,2.9l-13.7,0.2V19.8h0.1l3.3,3v17.7h10.3C89.2,40.6,91.4,39.9,93,38.5
			z"/>
		<polygon fill="#010101" points="58.1,16.9 58.1,46.5 55,43.4 55,19.8 52,16.9 		"/>
		<polygon fill="#010101" points="32.8,27.9 29.7,30.6 14.9,30.6 14.9,19.2 18.1,22.2 18.1,27.9 		"/>
		<polygon fill="#010101" points="18.1,33.8 18.1,45.9 14.9,43.3 14.9,30.6 		"/>
		<path fill="#010101" d="M14.9,19.1v0.1l-3.1-2.9h21c2.3,0,4,0.3,5.9,1.6c2.4,1.7,3.8,4.5,3.8,7.3c0,4.5-2.6,7.3-6.9,8.6l7.8,12.1
			l-5.5-2.7l-8.2-12.6h1.5c8.9,0,7.9-5.6,7.9-5.6c0-5.5-6.1-6-6.1-6L14.9,19.1z"/>
	</g>
	<g>
		<polygon fill="none" stroke="#010101" stroke-width="0.5" stroke-miterlimit="10" points="55,43.4 55,19.8 52,16.9 58.1,16.9 
			58.1,46.5 		"/>
		<path fill="none" stroke="#010101" stroke-width="0.5" stroke-miterlimit="10" d="M72.9,19.8l3.3,3v17.7h10.3c2.8,0,5-0.7,6.6-2.1
			l2.3,2l2.4,2c2.7-2.6,4.3-6.4,4.3-11c0-9.5-6.2-14.6-15.6-14.6H69.7L72.9,19.8z"/>
		<path fill="none" stroke="#010101" stroke-width="0.5" stroke-miterlimit="10" d="M72.8,19.8L72.8,19.8h13.7c0,0,12.7-0.1,12,11.2
			c0,0,0.8,5.8-3.2,9.4c-1.8,1.6-4.6,2.9-8.8,2.9l-13.7,0.2V19.8"/>
		<line fill="none" stroke="#010101" stroke-width="0.5" stroke-miterlimit="10" x1="112.7" y1="19.8" x2="112.6" y2="19.8"/>
		<polygon fill="none" stroke="#010101" stroke-width="0.5" stroke-miterlimit="10" points="112.7,19.8 109.7,16.9 136.9,16.9 
			136.9,22.8 134.1,19.8 		"/>
		<polyline fill="none" stroke="#010101" stroke-width="0.5" stroke-miterlimit="10" points="112.6,31.1 129.9,31.1 133,34.2 
			133,28.3 115.8,28.3 115.8,22.8 112.7,19.8 		"/>
		<polygon fill="none" stroke="#010101" stroke-width="0.5" stroke-miterlimit="10" points="112.6,31.1 112.6,43.4 134.1,43.4 
			137.2,46.5 137.2,40.6 115.8,40.6 115.8,34.2 		"/>
		<line fill="none" stroke="#010101" stroke-width="0.5" stroke-miterlimit="10" x1="112.6" y1="19.8" x2="112.6" y2="31.1"/>
		<path fill="none" stroke="#010101" stroke-width="0.5" stroke-miterlimit="10" d="M211.5,41l-2.4-2.4c-0.4,0.7-0.9,1.2-1.7,1.6
			c-1.7,0.9-4,1.3-5.9,1.3c-5.2,0-9.3-0.5-9.3-6.6v-18H186l2.9,2.9"/>
		<path fill="none" stroke="#010101" stroke-width="0.5" stroke-miterlimit="10" d="M211.5,41c0.8-0.9,1.3-2.1,1.3-3.7V19.8
			l-3.1-2.9h6.1v18c0,3.1-0.2,5.4-2.3,7.9L211.5,41z"/>
		<path fill="none" stroke="#010101" stroke-width="0.5" stroke-miterlimit="10" d="M188.9,19.8v17.5c0,0,0,6.7,11.9,6.9
			c0,0,7.6,0.4,10.7-3.2"/>
		<polyline fill="none" stroke="#010101" stroke-width="0.5" stroke-miterlimit="10" points="150.8,37.3 150.8,37.3 159.7,19.8 		
			"/>
		<polygon fill="none" stroke="#010101" stroke-width="0.5" stroke-miterlimit="10" points="150.8,37.3 152.8,40.3 149.7,46.5 
			147.7,43.4 		"/>
		<line fill="none" stroke="#010101" stroke-width="0.5" stroke-miterlimit="10" x1="150.8" y1="37.3" x2="150.8" y2="37.3"/>
		<polyline fill="none" stroke="#010101" stroke-width="0.5" stroke-miterlimit="10" points="172.7,37.3 172.6,37.2 167.7,34.4 
			155.9,34.4 161.8,22.7 159.7,19.8 157.6,16.9 165.8,16.9 180.9,46.5 173.9,46.5 175.9,43.4 172.6,37.3 172.6,37.2 163.4,19.8 
			159.7,19.8 159.7,19.8 		"/>
		<polyline fill="none" stroke="#010101" stroke-width="0.5" stroke-miterlimit="10" points="150.8,37.3 150.8,37.3 172.6,37.3 
			172.7,37.3 		"/>
		<polyline fill="none" stroke="#010101" stroke-width="0.5" stroke-miterlimit="10" points="14.9,30.6 14.9,19.2 14.9,19.1 		"/>
		<polygon fill="none" stroke="#010101" stroke-width="0.5" stroke-miterlimit="10" points="14.9,30.6 18.1,33.8 18.1,45.9 
			14.9,43.3 		"/>
		<path fill="none" stroke="#010101" stroke-width="0.5" stroke-miterlimit="10" d="M14.9,19.1L33,19.1c0,0,6.1,0.5,6.1,6
			c0,0,1,5.6-7.9,5.6h-1.5H14.9"/>
		<path fill="none" stroke="#010101" stroke-width="0.5" stroke-miterlimit="10" d="M29.7,30.6l3.1-2.7H18.1v-5.7l-3.2-3l-3.1-2.9
			h21c2.3,0,4,0.3,5.9,1.6c2.4,1.7,3.8,4.5,3.8,7.3c0,4.5-2.6,7.3-6.9,8.6l7.8,12.1l-5.5-2.7L29.7,30.6"/>
	</g>
</g>
</svg>
