<?xml version="1.0" encoding="UTF-8" standalone="no"?>
<!-- Generator: Adobe Illustrator 19.2.1, SVG Export Plug-In . SVG Version: 6.00 Build 0)  -->

<svg
   xmlns:dc="http://purl.org/dc/elements/1.1/"
   xmlns:cc="http://creativecommons.org/ns#"
   xmlns:rdf="http://www.w3.org/1999/02/22-rdf-syntax-ns#"
   xmlns:svg="http://www.w3.org/2000/svg"
   xmlns="http://www.w3.org/2000/svg"
   xmlns:sodipodi="http://sodipodi.sourceforge.net/DTD/sodipodi-0.dtd"
   xmlns:inkscape="http://www.inkscape.org/namespaces/inkscape"
   version="1.1"
   id="Layer_1"
   x="0px"
   y="0px"
   viewBox="0 0 273.2 273.2"
   style="enable-background:new 0 0 273.2 273.2;"
   xml:space="preserve"
   inkscape:version="0.91 r13725"
   sodipodi:docname="rideau-logo-hidden.svg"><metadata
     id="metadata240"><rdf:RDF><cc:Work
         rdf:about=""><dc:format>image/svg+xml</dc:format><dc:type
           rdf:resource="http://purl.org/dc/dcmitype/StillImage" /></cc:Work></rdf:RDF></metadata><defs
     id="defs238" /><sodipodi:namedview
     pagecolor="#ffffff"
     bordercolor="#666666"
     borderopacity="1"
     objecttolerance="10"
     gridtolerance="10"
     guidetolerance="10"
     inkscape:pageopacity="0"
     inkscape:pageshadow="2"
     inkscape:window-width="660"
     inkscape:window-height="480"
     id="namedview236"
     showgrid="false"
     inkscape:zoom="0.86383598"
     inkscape:cx="136.60001"
     inkscape:cy="136.60001"
     inkscape:window-x="0"
     inkscape:window-y="0"
     inkscape:window-maximized="0"
     inkscape:current-layer="Layer_1" /><style
     type="text/css"
     id="style3">
	.st0{fill:#FFFFFF;}
	.st1{stroke:#000000;stroke-width:1.2;stroke-miterlimit:10;}
	.st2{fill:none;stroke:#FFFFFF;stroke-width:1.2;stroke-miterlimit:10;}
	.st3{fill:none;stroke:#000000;stroke-width:1.2;stroke-miterlimit:10;}
	.st4{fill:none;stroke:#FFFFFF;stroke-width:0.5;stroke-miterlimit:10;}
	.st5{fill:#FFFFFF;stroke:#000000;stroke-width:1.2;stroke-miterlimit:10;}
	.st6{fill:none;stroke:#000000;stroke-width:0.5;stroke-miterlimit:10;}
</style><g
     id="g5"
     transform="matrix(0.73421826,0,0,0.73421826,38.429604,34.9503)"><g
       id="g7"><g
         id="XMLID_2_"><g
           id="g10"><path
             d="m 234.1,209.1 -1.1,-0.6 -5,-2.7 -4.8,-2.6 -5,-2.7 -5,-2.7 -4.4,-2.4 -4.7,-2.6 -5,-2.7 -4.6,-2.5 -0.2,-0.3 -2.8,-3.9 -3.1,-4.4 -3.2,-4.5 -3.2,-4.5 -2.8,-3.9 -3,-4.2 -3.2,-4.5 -3.2,-4.5 -2.8,-3.9 -3.3,-4.6 -0.3,-0.4 -0.5,0 0,-2.2 c 1.2,0 2.4,0 3.5,-0.1 3.1,-0.1 5.9,-0.5 8.6,-1 4.4,-0.8 8.1,-2.1 11.3,-3.6 7.2,-3.5 11.4,-8.5 13.9,-13.4 2,-3.9 2.9,-7.6 3.3,-10.4 0.4,-2.7 0.3,-4.4 0.3,-4.4 0,-1 0,-2 -0.1,-3 -0.2,-2.3 -0.5,-4.4 -1,-6.3 -0.4,-1.7 -1,-3.3 -1.7,-4.8 -0.7,-1.6 -1.6,-3.1 -2.5,-4.5 l -10.8,10.4 10,-10.4 c -0.9,-1.3 -1.9,-2.5 -3,-3.6 l 0.4,-0.4 c -1.3,-1.2 -2.6,-2.4 -4,-3.4 -1.3,-0.9 -2.7,-1.7 -4.1,-2.5 -1.7,-0.9 -3.5,-1.7 -5.3,-2.3 -1.9,-0.7 -3.8,-1.3 -5.7,-1.8 -2.2,-0.6 -4.3,-1 -6.3,-1.3 -2.2,-0.3 -4.2,-0.5 -6,-0.7 -4.1,-0.3 -6.8,-0.1 -6.8,-0.1 l -0.3,0 -7.6,0 -7.6,0 -6.7,0 -8.7,0 -7.6,0 -7.4,0 -7.6,0 -7.6,0 -6.7,0 -8.7,0 -3.7,0 -1.1,0 0,-0.9 0,0 -4,-3.6 -3.6,-3.2 -4.6,-4.1 -4.1,-3.6 -3.9,-3.5 -1.8,1.7 0,7.3 0,7.7 0,8.7 0,6.6 0,7.5 0,7.5 0,7.2 0,6.6 0,7.5 0,7.5 0,7.5 0,6.6 0,7.5 0,7.5 0,7.2 0,6.6 0,7.5 0,7.6 0,7.5 0,6.6 0,5.6 -0.1,0 0,-155.1 109.1,0 c 23,0 39.2,8.1 39.2,8.1 27.8,14.4 25.2,44.6 25.2,44.6 0,37.9 -31.1,48.7 -31.1,48.7 l 38.2,54 z"
             id="path12"
             inkscape:connector-curvature="0" /><path
             d="m 177.5,123.9 -6.4,6.2 -7.9,11.6 0,2.2 -6.6,0 -7.8,0 -6.8,0 -7.5,0 -7.8,0 -7.8,0 -6.8,0 -8.9,0 -7.8,0 -7.7,0 -7.8,0 -3.7,0 -0.4,0 0,-5 0,-7.5 0,-7.5 0,-6.6 0,-7.5 0,-7.5 0,-7.5 0,-6.6 0,-7.2 0,-6.6 1.1,0 2,1.6 4.7,3.8 3.6,2.9 4.1,3.4 4.1,3.4 3.9,3.2 0.2,0 7.6,0 8.7,0 6.7,0 7.6,0 7.6,0 7.3,0 6.7,0 7.6,0 7.6,0 0.3,0 c 2.5,0 4.5,0.5 6.2,1.2 1.5,0.7 2.8,1.6 3.8,2.7 0.5,0.5 0.9,1.1 1.3,1.6 -2.2,-2.9 -5.7,-5.2 -11.2,-5.2 l -69.7,0 0,33.8 70.3,0 c 0,0 4.9,0 8.9,-3.5 l 0.7,0.6 z"
             id="path14"
             inkscape:connector-curvature="0" /><polygon
             points="98.9,162.8 98.5,162.8 98.5,209.2 97.7,209.2 95.4,206.9 91.5,203.1 87.7,199.3 84.3,195.9 80.7,192.3 76.8,188.5 75.9,187.5 75.9,181.9 75.8,175.2 75.8,167.8 75.8,160.2 75.8,152.7 75.8,146.1 75.8,143.9 76.2,143.9 78.2,145.6 82.4,149.1 86.5,152.5 90.7,156 95.5,160 "
             id="polygon16" /></g><g
           id="g18"><path
             class="st3"
             d="m 97.7,209.2 0.8,0 0,-46.4 0.4,0 0.5,0 7.8,0 7.8,0 7.5,0 6.8,0 7.8,0 7.8,0 6,0 0,0 30.6,46.4 0.4,0 5.3,0 7.4,0 6.8,0 7.7,0 7.7,0 7.5,0 7.8,0 2,0 -0.1,-0.2 -38.2,-53.9 c 0,0 31.1,-10.8 31.1,-48.7 0,0 2.6,-30.2 -25.2,-44.6 0,0 -16.2,-8.1 -39.2,-8.1 l -109.1,0 0,155.5 0.1,0"
             id="path20"
             inkscape:connector-curvature="0"
             style="fill:none;stroke:#000000;stroke-width:1.20000005;stroke-miterlimit:10" /><path
             class="st3"
             d="m 181.7,113.5 c 0.2,-1.1 0.2,-2.3 0.2,-3.6 0,0 0,-1.2 -0.3,-2.9 -0.3,-1.6 -0.8,-3.8 -1.8,-5.9 -0.1,-0.2 -0.2,-0.4 -0.3,-0.6 -0.4,-0.8 -0.8,-1.5 -1.4,-2.2"
             id="path22"
             inkscape:connector-curvature="0"
             style="fill:none;stroke:#000000;stroke-width:1.20000005;stroke-miterlimit:10" /><path
             class="st3"
             d="m 180.9,116.8 c 0.3,-1 0.6,-2.1 0.7,-3.3"
             id="path24"
             inkscape:connector-curvature="0"
             style="fill:none;stroke:#000000;stroke-width:1.20000005;stroke-miterlimit:10" /><path
             class="st3"
             d="M 178.2,98.2 C 176,95.3 172.5,93 167,93 l -69.4,0 0,33.8 70.3,0 c 0,0 4.9,0 8.9,-3.5 1.6,-1.4 3,-3.4 4,-6.1 0,-0.1 0.1,-0.2 0.1,-0.3"
             id="path26"
             inkscape:connector-curvature="0"
             style="fill:none;stroke:#000000;stroke-width:1.20000005;stroke-miterlimit:10" /><line
             class="st3"
             x1="75.699997"
             y1="102.2"
             x2="75.699997"
             y2="94.599998"
             id="line28"
             style="fill:none;stroke:#000000;stroke-width:1.20000005;stroke-miterlimit:10" /><line
             class="st3"
             x1="53.599998"
             y1="116.2"
             x2="53.599998"
             y2="123.8"
             id="line30"
             style="fill:none;stroke:#000000;stroke-width:1.20000005;stroke-miterlimit:10" /><polyline
             class="st3"
             points="53.6,109.6 53.6,116.2 75.7,94.6 75.7,88     "
             id="polyline32"
             style="fill:none;stroke:#000000;stroke-width:1.20000005;stroke-miterlimit:10" /><polyline
             class="st3"
             points="53.6,102.4 53.6,109.6 75.7,88 75.7,80.8     "
             id="polyline34"
             style="fill:none;stroke:#000000;stroke-width:1.20000005;stroke-miterlimit:10" /><line
             class="st3"
             x1="75.699997"
             y1="117.2"
             x2="75.699997"
             y2="109.7"
             id="line36"
             style="fill:none;stroke:#000000;stroke-width:1.20000005;stroke-miterlimit:10" /><line
             class="st3"
             x1="53.599998"
             y1="131.3"
             x2="53.599998"
             y2="138.8"
             id="line38"
             style="fill:none;stroke:#000000;stroke-width:1.20000005;stroke-miterlimit:10" /><polyline
             class="st3"
             points="75.7,123.8 75.7,117.2 53.6,138.8 53.6,145.4     "
             id="polyline40"
             style="fill:none;stroke:#000000;stroke-width:1.20000005;stroke-miterlimit:10" /><polyline
             class="st3"
             points="53.6,94.8 53.6,102.4 75.7,80.8 75.7,74.2 75.7,73.3 75.6,73.3     "
             id="polyline42"
             style="fill:none;stroke:#000000;stroke-width:1.20000005;stroke-miterlimit:10" /><polygon
             class="st3"
             points="53.6,123.8 53.6,131.3 75.7,109.7 75.7,102.2 "
             id="polygon44"
             style="fill:none;stroke:#000000;stroke-width:1.20000005;stroke-miterlimit:10" /><polyline
             class="st3"
             points="75.8,131.3 75.7,123.8 53.6,145.4 53.6,153     "
             id="polyline46"
             style="fill:none;stroke:#000000;stroke-width:1.20000005;stroke-miterlimit:10" /><line
             class="st3"
             x1="63.400002"
             y1="62.400002"
             x2="59.299999"
             y2="58.799999"
             id="line48"
             style="fill:none;stroke:#000000;stroke-width:1.20000005;stroke-miterlimit:10" /><line
             class="st3"
             x1="53.599998"
             y1="64.400002"
             x2="53.599998"
             y2="72"
             id="line50"
             style="fill:none;stroke:#000000;stroke-width:1.20000005;stroke-miterlimit:10" /><polyline
             class="st3"
             points="53.6,57.1 53.6,64.4 59.3,58.8 55.3,55.3     "
             id="polyline52"
             style="fill:none;stroke:#000000;stroke-width:1.20000005;stroke-miterlimit:10" /><line
             class="st3"
             x1="53.599998"
             y1="57.099998"
             x2="55.299999"
             y2="55.299999"
             id="line54"
             style="fill:none;stroke:#000000;stroke-width:1.20000005;stroke-miterlimit:10" /><polyline
             class="st3"
             points="68,66.5 63.4,62.4 53.6,72 53.6,80.6     "
             id="polyline56"
             style="fill:none;stroke:#000000;stroke-width:1.20000005;stroke-miterlimit:10" /><polyline
             class="st3"
             points="53.6,87.3 53.6,94.8 75.6,73.3 71.6,69.7     "
             id="polyline58"
             style="fill:none;stroke:#000000;stroke-width:1.20000005;stroke-miterlimit:10" /><polygon
             class="st3"
             points="53.6,80.6 53.6,87.3 71.6,69.7 68,66.5 "
             id="polygon60"
             style="fill:none;stroke:#000000;stroke-width:1.20000005;stroke-miterlimit:10" /><line
             class="st3"
             x1="91.5"
             y1="203.10001"
             x2="87.699997"
             y2="199.3"
             id="line62"
             style="fill:none;stroke:#000000;stroke-width:1.20000005;stroke-miterlimit:10" /><line
             class="st3"
             x1="77.5"
             y1="209.2"
             x2="85.199997"
             y2="209.2"
             id="line64"
             style="fill:none;stroke:#000000;stroke-width:1.20000005;stroke-miterlimit:10" /><line
             class="st3"
             x1="84.300003"
             y1="195.89999"
             x2="80.699997"
             y2="192.3"
             id="line66"
             style="fill:none;stroke:#000000;stroke-width:1.20000005;stroke-miterlimit:10" /><line
             class="st3"
             x1="63.299999"
             y1="209.2"
             x2="70.599998"
             y2="209.2"
             id="line68"
             style="fill:none;stroke:#000000;stroke-width:1.20000005;stroke-miterlimit:10" /><polyline
             class="st3"
             points="55.5,209.2 63.3,209.2 80.7,192.3 76.8,188.5     "
             id="polyline70"
             style="fill:none;stroke:#000000;stroke-width:1.20000005;stroke-miterlimit:10" /><polygon
             class="st3"
             points="70.6,209.2 77.5,209.2 87.7,199.3 84.3,195.9 "
             id="polygon72"
             style="fill:none;stroke:#000000;stroke-width:1.20000005;stroke-miterlimit:10" /><polyline
             class="st3"
             points="93,209.2 97.7,209.2 95.4,206.9     "
             id="polyline74"
             style="fill:none;stroke:#000000;stroke-width:1.20000005;stroke-miterlimit:10" /><polyline
             class="st3"
             points="75.8,138.9 75.8,131.3 53.6,153 53.6,160.5     "
             id="polyline76"
             style="fill:none;stroke:#000000;stroke-width:1.20000005;stroke-miterlimit:10" /><polygon
             class="st3"
             points="85.2,209.2 93,209.2 95.4,206.9 91.5,203.1 "
             id="polygon78"
             style="fill:none;stroke:#000000;stroke-width:1.20000005;stroke-miterlimit:10" /><polyline
             class="st3"
             points="53.6,203.6 53.6,209.2 55.5,209.2 76.8,188.5 75.9,187.5 75.9,181.9     "
             id="polyline80"
             style="fill:none;stroke:#000000;stroke-width:1.20000005;stroke-miterlimit:10" /><line
             class="st3"
             x1="75.800003"
             y1="152.7"
             x2="75.800003"
             y2="146.10001"
             id="line82"
             style="fill:none;stroke:#000000;stroke-width:1.20000005;stroke-miterlimit:10" /><line
             class="st3"
             x1="53.599998"
             y1="167.7"
             x2="53.599998"
             y2="174.39999"
             id="line84"
             style="fill:none;stroke:#000000;stroke-width:1.20000005;stroke-miterlimit:10" /><polygon
             class="st3"
             points="53.6,160.5 53.6,167.7 75.8,146.1 75.8,143.9 75.8,138.9 "
             id="polygon86"
             style="fill:none;stroke:#000000;stroke-width:1.20000005;stroke-miterlimit:10" /><polyline
             class="st3"
             points="75.8,160.2 75.8,152.7 53.6,174.4 53.6,181.9     "
             id="polyline88"
             style="fill:none;stroke:#000000;stroke-width:1.20000005;stroke-miterlimit:10" /><polyline
             class="st3"
             points="75.8,167.8 75.8,160.2 53.6,181.9 53.6,189.5     "
             id="polyline90"
             style="fill:none;stroke:#000000;stroke-width:1.20000005;stroke-miterlimit:10" /><polyline
             class="st3"
             points="75.8,175.2 75.8,167.8 53.6,189.5 53.6,197     "
             id="polyline92"
             style="fill:none;stroke:#000000;stroke-width:1.20000005;stroke-miterlimit:10" /><polygon
             class="st3"
             points="53.6,197 53.6,203.6 75.9,181.9 75.8,175.2 "
             id="polygon94"
             style="fill:none;stroke:#000000;stroke-width:1.20000005;stroke-miterlimit:10" /><line
             class="st3"
             x1="141.89999"
             y1="143.89999"
             x2="134.5"
             y2="143.89999"
             id="line96"
             style="fill:none;stroke:#000000;stroke-width:1.20000005;stroke-miterlimit:10" /><line
             class="st3"
             x1="114.9"
             y1="162.8"
             x2="122.4"
             y2="162.8"
             id="line98"
             style="fill:none;stroke:#000000;stroke-width:1.20000005;stroke-miterlimit:10" /><polyline
             class="st3"
             points="148.7,143.9 141.9,143.9 122.4,162.8 122.4,162.8 129.2,162.8     "
             id="polyline100"
             style="fill:none;stroke:#000000;stroke-width:1.20000005;stroke-miterlimit:10" /><line
             class="st3"
             x1="137"
             y1="162.8"
             x2="144.7"
             y2="162.8"
             id="line102"
             style="fill:none;stroke:#000000;stroke-width:1.20000005;stroke-miterlimit:10" /><polyline
             class="st3"
             points="163.9,144.3 163.6,143.9 163.1,143.9 156.5,143.9     "
             id="polyline104"
             style="fill:none;stroke:#000000;stroke-width:1.20000005;stroke-miterlimit:10" /><polygon
             class="st3"
             points="129.3,162.8 129.2,162.8 137,162.8 137,162.8 156.5,143.9 148.7,143.9 "
             id="polygon106"
             style="fill:none;stroke:#000000;stroke-width:1.20000005;stroke-miterlimit:10" /><polyline
             class="st3"
             points="167.2,148.9 163.9,144.3 144.8,162.8 144.7,162.8 150.8,162.8 151.3,162.8 151.9,163.8     "
             id="polyline108"
             style="fill:none;stroke:#000000;stroke-width:1.20000005;stroke-miterlimit:10" /><line
             class="st3"
             x1="173.10001"
             y1="157.3"
             x2="170"
             y2="152.8"
             id="line110"
             style="fill:none;stroke:#000000;stroke-width:1.20000005;stroke-miterlimit:10" /><line
             class="st3"
             x1="154.60001"
             y1="167.8"
             x2="157.60001"
             y2="172.39999"
             id="line112"
             style="fill:none;stroke:#000000;stroke-width:1.20000005;stroke-miterlimit:10" /><polygon
             class="st3"
             points="151.9,163.8 154.6,167.8 170,152.8 167.2,148.9 "
             id="polygon114"
             style="fill:none;stroke:#000000;stroke-width:1.20000005;stroke-miterlimit:10" /><line
             class="st3"
             x1="118.9"
             y1="143.89999"
             x2="112.1"
             y2="143.89999"
             id="line116"
             style="fill:none;stroke:#000000;stroke-width:1.20000005;stroke-miterlimit:10" /><polyline
             class="st3"
             points="95.5,160 98.9,162.8 99,162.8 99.4,162.8     "
             id="polyline118"
             style="fill:none;stroke:#000000;stroke-width:1.20000005;stroke-miterlimit:10" /><line
             class="st3"
             x1="87.699997"
             y1="143.89999"
             x2="79.900002"
             y2="143.89999"
             id="line120"
             style="fill:none;stroke:#000000;stroke-width:1.20000005;stroke-miterlimit:10" /><line
             class="st3"
             x1="78.199997"
             y1="145.60001"
             x2="82.400002"
             y2="149.10001"
             id="line122"
             style="fill:none;stroke:#000000;stroke-width:1.20000005;stroke-miterlimit:10" /><polyline
             class="st3"
             points="95.4,143.9 87.7,143.9 82.4,149.1 86.5,152.5     "
             id="polyline124"
             style="fill:none;stroke:#000000;stroke-width:1.20000005;stroke-miterlimit:10" /><polyline
             class="st3"
             points="107.2,162.8 114.9,162.8 115,162.8 134.5,143.9 126.7,143.9     "
             id="polyline126"
             style="fill:none;stroke:#000000;stroke-width:1.20000005;stroke-miterlimit:10" /><polygon
             class="st3"
             points="78.2,145.6 79.9,143.9 76.2,143.9 "
             id="polygon128"
             style="fill:none;stroke:#000000;stroke-width:1.20000005;stroke-miterlimit:10" /><polyline
             class="st3"
             points="103.2,143.9 95.4,143.9 86.5,152.5 90.7,156     "
             id="polyline130"
             style="fill:none;stroke:#000000;stroke-width:1.20000005;stroke-miterlimit:10" /><polygon
             class="st3"
             points="99.5,162.8 99.4,162.8 107.2,162.8 107.2,162.8 126.7,143.9 118.9,143.9 "
             id="polygon132"
             style="fill:none;stroke:#000000;stroke-width:1.20000005;stroke-miterlimit:10" /><polyline
             class="st3"
             points="176.3,161.8 173.1,157.3 157.6,172.4 160.6,177     "
             id="polyline134"
             style="fill:none;stroke:#000000;stroke-width:1.20000005;stroke-miterlimit:10" /><polygon
             class="st3"
             points="90.7,156 95.5,160 112.1,143.9 103.2,143.9 "
             id="polygon136"
             style="fill:none;stroke:#000000;stroke-width:1.20000005;stroke-miterlimit:10" /><line
             class="st3"
             x1="194.3"
             y1="187.2"
             x2="191.60001"
             y2="183.3"
             id="line138"
             style="fill:none;stroke:#000000;stroke-width:1.20000005;stroke-miterlimit:10" /><line
             class="st3"
             x1="175.3"
             y1="199.2"
             x2="177.89999"
             y2="203.2"
             id="line140"
             style="fill:none;stroke:#000000;stroke-width:1.20000005;stroke-miterlimit:10" /><line
             class="st3"
             x1="228"
             y1="205.8"
             x2="223.2"
             y2="203.10001"
             id="line142"
             style="fill:none;stroke:#000000;stroke-width:1.20000005;stroke-miterlimit:10" /><line
             class="st3"
             x1="216.89999"
             y1="209.3"
             x2="224.39999"
             y2="209.3"
             id="line144"
             style="fill:none;stroke:#000000;stroke-width:1.20000005;stroke-miterlimit:10" /><polyline
             class="st3"
             points="209.1,209.3 216.9,209.3 216.9,209.2 223.2,203.1 218.2,200.4     "
             id="polyline146"
             style="fill:none;stroke:#000000;stroke-width:1.20000005;stroke-miterlimit:10" /><polyline
             class="st3"
             points="201.4,209.3 209.1,209.3 209.2,209.2 218.2,200.4 213.3,197.7     "
             id="polyline148"
             style="fill:none;stroke:#000000;stroke-width:1.20000005;stroke-miterlimit:10" /><polyline
             class="st3"
             points="232.2,209.3 234.4,209.3 234.1,209.1 233,208.5     "
             id="polyline150"
             style="fill:none;stroke:#000000;stroke-width:1.20000005;stroke-miterlimit:10" /><polyline
             class="st3"
             points="194.6,209.3 201.4,209.3 201.4,209.2 213.3,197.7 208.9,195.3     "
             id="polyline152"
             style="fill:none;stroke:#000000;stroke-width:1.20000005;stroke-miterlimit:10" /><polygon
             class="st3"
             points="228,205.8 224.4,209.2 224.4,209.3 232.2,209.3 232.2,209.2 233,208.5 "
             id="polygon154"
             style="fill:none;stroke:#000000;stroke-width:1.20000005;stroke-miterlimit:10" /><polyline
             class="st3"
             points="172.3,194.6 175.3,199.2 191.6,183.3 188.4,178.9     "
             id="polyline156"
             style="fill:none;stroke:#000000;stroke-width:1.20000005;stroke-miterlimit:10" /><line
             class="st3"
             x1="185.3"
             y1="174.39999"
             x2="182.10001"
             y2="169.89999"
             id="line158"
             style="fill:none;stroke:#000000;stroke-width:1.20000005;stroke-miterlimit:10" /><line
             class="st3"
             x1="166.2"
             y1="185.39999"
             x2="169.2"
             y2="190"
             id="line160"
             style="fill:none;stroke:#000000;stroke-width:1.20000005;stroke-miterlimit:10" /><polygon
             class="st3"
             points="169.2,190 172.3,194.6 188.4,178.9 185.3,174.4 "
             id="polygon162"
             style="fill:none;stroke:#000000;stroke-width:1.20000005;stroke-miterlimit:10" /><polyline
             class="st3"
             points="163.5,181.4 166.2,185.4 182.1,169.9 179.3,166     "
             id="polyline164"
             style="fill:none;stroke:#000000;stroke-width:1.20000005;stroke-miterlimit:10" /><line
             class="st3"
             x1="204.2"
             y1="192.8"
             x2="199.2"
             y2="190"
             id="line166"
             style="fill:none;stroke:#000000;stroke-width:1.20000005;stroke-miterlimit:10" /><polyline
             class="st3"
             points="181,207.8 181.9,209.2 181.9,209.3 187.2,209.3     "
             id="polyline168"
             style="fill:none;stroke:#000000;stroke-width:1.20000005;stroke-miterlimit:10" /><polygon
             class="st3"
             points="160.6,177 163.5,181.4 179.3,166 176.3,161.8 "
             id="polygon170"
             style="fill:none;stroke:#000000;stroke-width:1.20000005;stroke-miterlimit:10" /><polygon
             class="st3"
             points="187.2,209.2 187.2,209.3 194.6,209.3 194.6,209.2 208.9,195.3 204.2,192.8 "
             id="polygon172"
             style="fill:none;stroke:#000000;stroke-width:1.20000005;stroke-miterlimit:10" /><polygon
             class="st3"
             points="194.6,187.5 194.3,187.2 177.9,203.2 181,207.8 199.2,190 "
             id="polygon174"
             style="fill:none;stroke:#000000;stroke-width:1.20000005;stroke-miterlimit:10" /><line
             class="st3"
             x1="141.5"
             y1="74.199997"
             x2="134.89999"
             y2="74.199997"
             id="line176"
             style="fill:none;stroke:#000000;stroke-width:1.20000005;stroke-miterlimit:10" /><line
             class="st3"
             x1="115.7"
             y1="92.599998"
             x2="122.3"
             y2="92.599998"
             id="line178"
             style="fill:none;stroke:#000000;stroke-width:1.20000005;stroke-miterlimit:10" /><polyline
             class="st3"
             points="107,92.6 115.7,92.6 134.9,74.2 126.2,74.2     "
             id="polyline180"
             style="fill:none;stroke:#000000;stroke-width:1.20000005;stroke-miterlimit:10" /><polyline
             class="st3"
             points="99.3,92.6 107,92.6 126.2,74.2 118.5,74.2     "
             id="polyline182"
             style="fill:none;stroke:#000000;stroke-width:1.20000005;stroke-miterlimit:10" /><line
             class="st3"
             x1="137.5"
             y1="92.599998"
             x2="144.8"
             y2="92.599998"
             id="line184"
             style="fill:none;stroke:#000000;stroke-width:1.20000005;stroke-miterlimit:10" /><path
             class="st3"
             d="M 163.8,74.4 C 159.7,74.1 157,74.3 157,74.3 l -0.3,0"
             id="path186"
             inkscape:connector-curvature="0"
             style="fill:none;stroke:#000000;stroke-width:1.20000005;stroke-miterlimit:10" /><polyline
             class="st3"
             points="149.1,74.2 141.5,74.2 122.3,92.6 129.9,92.6     "
             id="polyline188"
             style="fill:none;stroke:#000000;stroke-width:1.20000005;stroke-miterlimit:10" /><polygon
             class="st3"
             points="129.9,92.6 137.5,92.6 156.7,74.2 149.1,74.2 "
             id="polygon190"
             style="fill:none;stroke:#000000;stroke-width:1.20000005;stroke-miterlimit:10" /><polyline
             class="st3"
             points="95.2,89.4 99.1,92.6 99.3,92.6 118.5,74.2 111,74.2     "
             id="polyline192"
             style="fill:none;stroke:#000000;stroke-width:1.20000005;stroke-miterlimit:10" /><polyline
             class="st3"
             points="80.5,74.2 76.7,74.2 78.8,75.9     "
             id="polyline194"
             style="fill:none;stroke:#000000;stroke-width:1.20000005;stroke-miterlimit:10" /><polyline
             class="st3"
             points="89.2,74.2 80.5,74.2 78.8,75.9 83.4,79.7     "
             id="polyline196"
             style="fill:none;stroke:#000000;stroke-width:1.20000005;stroke-miterlimit:10" /><polyline
             class="st3"
             points="91.1,86 95.2,89.4 111,74.2 103.4,74.2     "
             id="polyline198"
             style="fill:none;stroke:#000000;stroke-width:1.20000005;stroke-miterlimit:10" /><path
             class="st3"
             d="m 169.8,75 c -2.2,-0.3 -4.2,-0.5 -6,-0.7 l -19,18.2 6.7,0"
             id="path200"
             inkscape:connector-curvature="0"
             style="fill:none;stroke:#000000;stroke-width:1.20000005;stroke-miterlimit:10" /><polyline
             class="st3"
             points="95.8,74.2 89.2,74.2 83.4,79.7 87,82.7     "
             id="polyline202"
             style="fill:none;stroke:#000000;stroke-width:1.20000005;stroke-miterlimit:10" /><polygon
             class="st3"
             points="87,82.7 91.1,86 103.4,74.2 95.8,74.2 "
             id="polygon204"
             style="fill:none;stroke:#000000;stroke-width:1.20000005;stroke-miterlimit:10" /><path
             class="st3"
             d="m 166.6,141.7 c 3.1,-0.1 5.9,-0.5 8.6,-1"
             id="path206"
             inkscape:connector-curvature="0"
             style="fill:none;stroke:#000000;stroke-width:1.20000005;stroke-miterlimit:10" /><path
             class="st3"
             d="m 203.6,113.3 c 0.4,-2.7 0.3,-4.4 0.3,-4.4 0,-1 0,-2 -0.1,-3"
             id="path208"
             inkscape:connector-curvature="0"
             style="fill:none;stroke:#000000;stroke-width:1.20000005;stroke-miterlimit:10" /><path
             class="st3"
             d="m 171.1,130.1 -7.9,11.6 c 1.2,0 2.4,0 3.5,-0.1 l 37.1,-35.8 c -0.2,-2.3 -0.5,-4.4 -1,-6.3"
             id="path210"
             inkscape:connector-curvature="0"
             style="fill:none;stroke:#000000;stroke-width:1.20000005;stroke-miterlimit:10" /><path
             class="st3"
             d="m 186.4,137.1 c 7.2,-3.5 11.4,-8.5 13.9,-13.4"
             id="path212"
             inkscape:connector-curvature="0"
             style="fill:none;stroke:#000000;stroke-width:1.20000005;stroke-miterlimit:10" /><path
             class="st3"
             d="m 182.4,112.7 -0.8,0.7 c 0,0 0,0 0,0.1 -0.2,0.7 -0.5,2.4 -0.7,3.3 0,0 0,0 0,0 0,0.1 -0.1,0.2 -0.1,0.3"
             id="path214"
             inkscape:connector-curvature="0"
             style="fill:none;stroke:#000000;stroke-width:1.20000005;stroke-miterlimit:10" /><path
             class="st3"
             d="m 171.1,130.1 6.4,-6.2 25.3,-24.3 c -0.4,-1.7 -1,-3.3 -1.7,-4.8"
             id="path216"
             inkscape:connector-curvature="0"
             style="fill:none;stroke:#000000;stroke-width:1.20000005;stroke-miterlimit:10" /><path
             class="st3"
             d="m 200.3,123.7 c 2,-3.9 2.9,-7.6 3.3,-10.4 l -28.4,27.4 c 4.4,-0.8 8.1,-2.1 11.3,-3.6 l 13.8,-13.4 z"
             id="path218"
             inkscape:connector-curvature="0"
             style="fill:none;stroke:#000000;stroke-width:1.20000005;stroke-miterlimit:10" /><path
             class="st3"
             d="m 181.8,78.1 c -1.9,-0.7 -3.8,-1.3 -5.7,-1.8"
             id="path220"
             inkscape:connector-curvature="0"
             style="fill:none;stroke:#000000;stroke-width:1.20000005;stroke-miterlimit:10" /><line
             class="st3"
             x1="159"
             y1="92.599998"
             x2="166.60001"
             y2="92.599998"
             id="line222"
             style="fill:none;stroke:#000000;stroke-width:1.20000005;stroke-miterlimit:10" /><path
             class="st3"
             d="m 187,80.4 c -1.7,-0.9 -3.5,-1.7 -5.3,-2.3 l -15.2,14.5 0.3,0 c 2.5,0 4.5,0.5 6.2,1.2"
             id="path224"
             inkscape:connector-curvature="0"
             style="fill:none;stroke:#000000;stroke-width:1.20000005;stroke-miterlimit:10" /><path
             class="st3"
             d="M 182.4,112.7 201,94.8 c -0.7,-1.6 -1.6,-3.1 -2.5,-4.5 l -10.8,10.4 -5.9,5.7"
             id="path226"
             inkscape:connector-curvature="0"
             style="fill:none;stroke:#000000;stroke-width:1.20000005;stroke-miterlimit:10" /><path
             class="st3"
             d="M 191.1,82.9 C 189.8,82 188.4,81.2 187,80.4 l -14,13.4 c 1.5,0.7 2.8,1.6 3.8,2.7"
             id="path228"
             inkscape:connector-curvature="0"
             style="fill:none;stroke:#000000;stroke-width:1.20000005;stroke-miterlimit:10" /><path
             class="st3"
             d="m 169.8,75 -18.3,17.6 7.6,0 17,-16.3 c -2.2,-0.6 -4.3,-1 -6.3,-1.3 z"
             id="path230"
             inkscape:connector-curvature="0"
             style="fill:none;stroke:#000000;stroke-width:1.20000005;stroke-miterlimit:10" /><path
             class="st3"
             d="m 181.8,106.9 5.9,-6.2 10,-10.4 c -0.9,-1.3 -1.9,-2.5 -3,-3.6 -0.1,-0.1 -0.3,-0.3 -0.4,-0.4 l -14.7,14.2 -0.1,0.1 -0.6,0.6"
             id="path232"
             inkscape:connector-curvature="0"
             style="fill:none;stroke:#000000;stroke-width:1.20000005;stroke-miterlimit:10" /><path
             class="st3"
             d="m 191.1,82.9 -14.2,13.7 c 0.5,0.5 0.9,1.1 1.3,1.6 0,0 0,0 0,0 0.5,0.8 0.9,1.5 1.3,2.3 0.1,0.2 0.2,0.4 0.3,0.6 l 0.1,-0.1 14.8,-14.3 0.4,-0.4 c -1.2,-1.3 -2.6,-2.4 -4,-3.4 z"
             id="path234"
             inkscape:connector-curvature="0"
             style="fill:none;stroke:#000000;stroke-width:1.20000005;stroke-miterlimit:10" /></g></g></g></g></svg>