<?xml version="1.0" encoding="UTF-8" standalone="no"?>
<svg
   xmlns:dc="http://purl.org/dc/elements/1.1/"
   xmlns:cc="http://creativecommons.org/ns#"
   xmlns:rdf="http://www.w3.org/1999/02/22-rdf-syntax-ns#"
   xmlns:svg="http://www.w3.org/2000/svg"
   xmlns="http://www.w3.org/2000/svg"
   xmlns:sodipodi="http://sodipodi.sourceforge.net/DTD/sodipodi-0.dtd"
   xmlns:inkscape="http://www.inkscape.org/namespaces/inkscape"
   width="1792"
   height="1792"
   viewBox="0 0 1792 1792"
   id="svg4182"
   version="1.1"
   inkscape:version="0.91 r13725"
   sodipodi:docname="twitter.svg">
  <metadata
     id="metadata4190">
    <rdf:RDF>
      <cc:Work
         rdf:about="">
        <dc:format>image/svg+xml</dc:format>
        <dc:type
           rdf:resource="http://purl.org/dc/dcmitype/StillImage" />
      </cc:Work>
    </rdf:RDF>
  </metadata>
  <defs
     id="defs4188" />
  <sodipodi:namedview
     pagecolor="#ffffff"
     bordercolor="#666666"
     borderopacity="1"
     objecttolerance="10"
     gridtolerance="10"
     guidetolerance="10"
     inkscape:pageopacity="0"
     inkscape:pageshadow="2"
     inkscape:window-width="1280"
     inkscape:window-height="962"
     id="namedview4186"
     showgrid="false"
     inkscape:zoom="0.22633191"
     inkscape:cx="676.41518"
     inkscape:cy="971.08531"
     inkscape:window-x="1272"
     inkscape:window-y="-8"
     inkscape:window-maximized="1"
     inkscape:current-layer="svg4182" />
  <path
     d="M896 622l201 306h-402zm365 530h94l-459-691-459 691h94l104-160h522zm403-256q0 209-103 385.5t-279.5 279.5-385.5 103-385.5-103-279.5-279.5-103-385.5 103-385.5 279.5-279.5 385.5-103 385.5 103 279.5 279.5 103 385.5z"
     id="path4184" />
  <circle
     style="opacity:1;fill:#000000;fill-opacity:1;fill-rule:nonzero;stroke:none;stroke-width:1;stroke-linecap:round;stroke-miterlimit:4;stroke-dasharray:none;stroke-opacity:1"
     id="path4158"
     cx="895.99994"
     cy="903.5932"
     r="571.42859" />
  <path
     id="path4149"
     d="m 1385.0538,586.10854 q -40.1963,58.7947 -97.1912,100.1909 0.6,8.3993 0.6,25.1977 0,77.993 -22.7979,155.6859 -22.798,77.6929 -69.2937,149.08646 -46.4958,71.3936 -110.69,126.2886 -64.1942,54.895 -154.78595,87.592 -90.59183,32.6971 -193.78243,32.6971 -162.5853,0 -297.5729,-86.9922 20.998,2.3998 46.7956,2.3998 134.9878,0 240.5782,-82.7925 -62.9942,-1.1998 -112.7897,-38.6964 -49.7955,-37.4966 -68.3938,-95.69136 19.7982,2.9997 36.5966,2.9997 25.7978,0 50.9954,-6.5994 -67.1939,-13.7988 -111.2899,-66.8939 -44.096,-53.0952 -44.096,-123.2888 l 0,-2.3998 q 40.7963,22.7979 87.5921,24.5978 -39.5964,-26.3977 -62.9943,-68.9938 -23.3979,-42.5961 -23.3979,-92.3916 0,-52.7952 26.3976,-97.7911 72.5935,89.3919 176.684,143.087 104.0905,53.6951 222.87983,59.6946 -4.7997,-22.798 -4.7997,-44.396 0,-80.3927 56.6949,-137.0875 56.69485,-56.6949 137.08765,-56.6949 83.9923,0 141.5871,61.1944 65.394,-12.5988 122.9889,-46.7957 -22.1981,68.9937 -85.1923,106.7903 55.7949,-5.9995 111.5898,-29.9973 z"
     inkscape:connector-curvature="0"
     style="fill:#ffffff" />
</svg>
